<svg width="43" height="43" viewBox="0 0 43 43" fill="none" xmlns="http://www.w3.org/2000/svg">
<g clip-path="url(#clip0_61_257)">
<path d="M7.6395 0.21875H35.2448C39.4301 0.21875 42.8139 3.68939 42.8139 7.98202V35.1992C42.8139 39.4918 39.4301 42.9624 35.2448 42.9624H7.6395C3.45418 42.9624 0.0703125 39.4918 0.0703125 35.1992V7.98202C0.0703125 3.68939 3.45418 0.21875 7.6395 0.21875Z" fill="#001E36"/>
<path fill-rule="evenodd" clip-rule="evenodd" d="M8.98438 12.1922V30.6867C8.98438 30.8484 9.05561 30.9204 9.19809 30.9204H12.582H12.6532C12.7779 30.9024 12.8669 30.7945 12.8491 30.6687V24.8993C13.1874 24.8993 13.4368 24.8993 13.6149 24.9173C13.793 24.9353 14.078 24.9353 14.5054 24.9353C15.9658 24.9353 17.3016 24.7735 18.5126 24.3241C19.6703 23.8928 20.6676 23.1379 21.38 22.1314C22.0924 21.125 22.4486 19.8488 22.4486 18.3032C22.4486 17.4943 22.3061 16.7215 22.039 15.9666C21.754 15.1937 21.3088 14.4928 20.7389 13.9177C20.0621 13.2526 19.2428 12.7494 18.3524 12.4438C17.355 12.0664 16.1439 11.8867 14.6835 11.8867C14.1492 11.8867 13.6149 11.8867 13.0628 11.9046C12.7963 11.9133 12.5381 11.9178 12.2881 11.9222C12.0203 11.9268 11.7621 11.9313 11.5134 11.9406C11.2802 11.9493 11.0553 11.9538 10.8368 11.9581C10.6048 11.9628 10.38 11.9673 10.1598 11.9766C9.7502 11.9946 9.46524 11.9946 9.16247 11.9946C9.0378 11.9946 8.98438 12.0664 8.98438 12.1922ZM12.8669 21.5023V15.4634C12.9916 15.4454 13.2409 15.4274 13.5971 15.4454C13.9355 15.4274 14.3451 15.4274 14.8082 15.4274C15.5384 15.4094 16.2508 15.5173 16.9098 15.7869C17.4262 15.9846 17.8537 16.3441 18.1564 16.8113C18.4414 17.2966 18.5839 17.8538 18.5661 18.411C18.5661 19.2018 18.388 19.8129 18.014 20.2622C17.6221 20.7115 17.1235 21.053 16.5536 21.2148C15.8946 21.4305 15.2 21.5383 14.5054 21.5383H13.5615C13.3631 21.5383 13.1494 21.5228 12.9204 21.5063C12.9026 21.5049 12.8848 21.5037 12.8669 21.5023Z" fill="#31A8FF"/>
<path d="M33.5537 20.4096C33.0194 20.1221 32.4495 19.9244 31.844 19.7986C31.185 19.6548 30.526 19.5649 29.8493 19.5649C29.4931 19.5469 29.1191 19.6009 28.7807 19.6907C28.5491 19.7446 28.3532 19.8704 28.2286 20.0501C28.1395 20.194 28.0861 20.3737 28.0861 20.5355C28.0861 20.6972 28.1573 20.859 28.2642 21.0028C28.4245 21.2005 28.6382 21.3622 28.8697 21.488C29.2793 21.7037 29.7068 21.9014 30.1342 22.0812C31.0959 22.4047 32.0221 22.854 32.8769 23.3932C33.4647 23.7706 33.9455 24.2739 34.2839 24.885C34.5689 25.4602 34.7113 26.0892 34.6935 26.7362C34.7113 27.5809 34.462 28.4257 33.999 29.1267C33.5003 29.8456 32.8057 30.4027 32.0043 30.7263C31.1316 31.1037 30.063 31.3014 28.7807 31.3014C27.9614 31.3014 27.16 31.2296 26.3585 31.0678C25.7352 30.9599 25.1118 30.7622 24.5419 30.4926C24.4173 30.4207 24.3282 30.2949 24.346 30.1512V27.0238C24.346 26.9699 24.3638 26.898 24.4173 26.8621C24.4707 26.8261 24.5241 26.8441 24.5775 26.88C25.2721 27.2934 26.0023 27.581 26.786 27.7607C27.4627 27.9404 28.1751 28.0303 28.8875 28.0303C29.5643 28.0303 30.0452 27.9404 30.3657 27.7786C30.6507 27.6529 30.8466 27.3473 30.8466 27.0238C30.8466 26.7722 30.7041 26.5385 30.4192 26.3049C30.1342 26.0712 29.5465 25.8017 28.6738 25.4602C27.7655 25.1366 26.9284 24.7053 26.1448 24.1661C25.5927 23.7706 25.1297 23.2494 24.7913 22.6384C24.5063 22.0632 24.3638 21.4341 24.3816 20.805C24.3816 20.0322 24.5954 19.2953 24.9872 18.6303C25.4324 17.9114 26.0914 17.3362 26.8572 16.9768C27.6943 16.5454 28.745 16.3477 30.0095 16.3477C30.7397 16.3477 31.4878 16.4016 32.218 16.5095C32.7523 16.5813 33.2687 16.7251 33.7496 16.9228C33.8209 16.9408 33.8921 17.0127 33.9277 17.0846C33.9455 17.1565 33.9633 17.2284 33.9633 17.3003V20.2299C33.9633 20.3018 33.9277 20.3737 33.8743 20.4096C33.714 20.4456 33.6249 20.4456 33.5537 20.4096Z" fill="#31A8FF"/>
</g>
<defs>
<clipPath id="clip0_61_257">
<rect width="42.7436" height="42.7436" fill="white" transform="translate(0.0703125 0.21875)"/>
</clipPath>
</defs>
</svg>
