<svg width="43" height="43" viewBox="0 0 43 43" fill="none" xmlns="http://www.w3.org/2000/svg">
<g clip-path="url(#clip0_61_251)">
<path d="M35.3494 0.226562H7.56607C3.43491 0.226562 0.0859375 3.69101 0.0859375 7.96463V35.2321C0.0859375 39.5057 3.43491 42.9702 7.56607 42.9702H35.3494C39.4806 42.9702 42.8296 39.5057 42.8296 35.2321V7.96463C42.8296 3.69101 39.4806 0.226562 35.3494 0.226562Z" fill="#330000"/>
<path d="M21.5989 26.2701H15.6231L14.0803 30.7247C14.0625 30.8717 13.9696 30.9451 13.8015 30.9451H10.9964C10.8094 30.9451 10.7443 30.8533 10.8011 30.6696L16.2142 14.5924C16.367 14.1028 16.4425 13.5924 16.4379 13.0796C16.4349 13.057 16.4371 13.034 16.4444 13.0123C16.4517 12.9907 16.464 12.971 16.4801 12.9549C16.4963 12.9387 16.5159 12.9265 16.5376 12.9192C16.5592 12.9119 16.5822 12.9096 16.6049 12.9127H20.5319C20.6455 12.9127 20.7106 12.9594 20.729 13.0496L26.7865 30.698C26.8433 30.865 26.7965 30.9451 26.6463 30.9451H23.5056C23.4475 30.9486 23.3897 30.9345 23.3397 30.9048C23.2897 30.875 23.2498 30.8309 23.2251 30.7782L21.5989 26.2701ZM16.291 23.2646H20.946C20.8341 23.0192 18.7404 16.2637 18.5901 15.6943H18.5634L16.291 23.2646ZM30.1342 16.252C29.8709 16.2633 29.6081 16.2216 29.3612 16.1296C29.1142 16.0375 28.8883 15.8969 28.6966 15.716C28.5091 15.5254 28.3632 15.2978 28.2684 15.0477C28.1735 14.7976 28.1317 14.5305 28.1456 14.2634C28.1332 13.9929 28.1771 13.7228 28.2745 13.4702C28.372 13.2175 28.5208 12.9879 28.7117 12.7958C28.9049 12.6119 29.1329 12.4684 29.3824 12.3738C29.6318 12.2792 29.8977 12.2353 30.1643 12.2448C30.4314 12.2309 30.6984 12.2727 30.9485 12.3675C31.1986 12.4624 31.4262 12.6082 31.6169 12.7958C31.7994 12.9924 31.9409 13.2235 32.0329 13.4756C32.1249 13.7276 32.1657 13.9954 32.1529 14.2634C32.1668 14.5305 32.125 14.7976 32.0301 15.0477C31.9353 15.2978 31.7894 15.5254 31.6019 15.716C31.4052 15.8986 31.1741 16.04 30.9221 16.132C30.6701 16.2241 30.4022 16.2649 30.1342 16.252ZM28.4796 30.6947V17.8115C28.4751 17.7811 28.4778 17.75 28.4874 17.7208C28.4971 17.6916 28.5134 17.6651 28.5352 17.6433C28.5569 17.6216 28.5834 17.6052 28.6126 17.5956C28.6418 17.5859 28.6729 17.5833 28.7033 17.5878H31.5952C31.6255 17.5836 31.6564 17.5865 31.6855 17.5963C31.7145 17.6061 31.7409 17.6225 31.7625 17.6441C31.7842 17.6658 31.8006 17.6922 31.8104 17.7212C31.8201 17.7502 31.8231 17.7811 31.8189 17.8115V30.7214C31.8234 30.7518 31.8207 30.7829 31.8111 30.8121C31.8014 30.8413 31.7851 30.8678 31.7633 30.8896C31.7416 30.9113 31.7151 30.9276 31.6859 30.9373C31.6567 30.947 31.6256 30.9496 31.5952 30.9451H28.73C28.696 30.9498 28.6614 30.9466 28.6289 30.9357C28.5963 30.9248 28.5668 30.9065 28.5425 30.8822C28.5182 30.8579 28.4999 30.8284 28.489 30.7958C28.4781 30.7633 28.4749 30.7287 28.4796 30.6947Z" fill="#FF9A00"/>
</g>
<defs>
<clipPath id="clip0_61_251">
<rect width="42.7436" height="42.7436" fill="white" transform="translate(0.09375 0.21875)"/>
</clipPath>
</defs>
</svg>
