<svg width="44" height="45" viewBox="0 0 44 45" fill="none" xmlns="http://www.w3.org/2000/svg">
<g filter="url(#filter0_di_61_370)">
<g clip-path="url(#clip0_61_370)">
<rect x="0.3125" y="0.0664062" width="43.1546" height="44.1821" rx="9.24742" fill="#303030"/>
<path d="M19.8536 8.40489C17.3643 8.68931 15.3061 9.42068 13.387 10.7209C13.3175 10.7751 12.7751 11.2085 12.205 11.6825C6.92041 16.0436 5.96085 23.9397 10.0494 29.3844C13.5539 34.0299 19.2 35.9667 25.1382 34.531C27.2798 34.0164 29.3519 32.8516 31.1319 31.1451C32.8564 29.4927 33.7742 28.0841 34.5113 25.9713C36.5277 20.1745 34.3722 14.0256 29.1016 10.5584C27.1964 9.31233 25.3329 8.67577 22.7045 8.39135C21.3138 8.24237 21.3277 8.24237 19.8536 8.40489ZM17.9623 16.8427C18.9497 17.3168 19.8675 18.2919 20.2708 19.3077C20.5629 20.0662 20.8549 21.7456 20.7297 21.9623C20.7019 22.03 18.9497 22.0707 16.8498 22.0707H13.0394V22.477C13.0394 22.9916 13.4287 24.1022 13.7208 24.4273C13.8459 24.5627 14.2075 24.8201 14.5413 25.0097C15.028 25.2941 15.32 25.3483 16.1544 25.3618C17.4061 25.3618 18.2265 24.9826 18.6437 24.1971C18.908 23.7095 18.9219 23.6959 19.7285 23.6959C20.6185 23.6959 20.6463 23.7366 20.3543 24.4408C19.8119 25.7004 18.6437 26.5401 17.0306 26.8246C15.3061 27.1361 13.6512 26.6079 12.5109 25.3889C11.6626 24.4815 11.3566 23.6282 11.2593 21.8946C11.2037 20.6892 11.2315 20.4725 11.5792 19.5515C12.344 17.5064 14.1658 16.3145 16.3491 16.4364C16.9193 16.477 17.4617 16.6125 17.9623 16.8427ZM24.0256 16.8834C24.2203 17.1542 24.4428 17.4657 24.5124 17.5876C25.013 18.4138 26.3202 20.0255 26.3898 19.9443C26.4454 19.8766 27.0712 19.0639 27.7665 18.1023L29.0459 16.3822H30.0194C30.6452 16.3822 30.979 16.4364 30.979 16.5312C30.979 16.626 30.2419 17.6418 29.338 18.8066C28.434 19.9714 27.6414 21.0007 27.5857 21.0955C27.4606 21.2987 27.7665 21.7727 29.9916 24.7117C30.8399 25.8223 31.5352 26.7839 31.5352 26.8381C31.5352 26.9058 31.0485 26.9465 30.4505 26.9465H29.3658L28.5731 25.8223C28.1281 25.2128 27.4328 24.2377 27.0295 23.6688L26.2924 22.626L24.7766 24.7794L23.2608 26.9465H22.2595C21.7032 26.9465 21.2443 26.9058 21.2443 26.8381C21.2443 26.7027 21.6476 26.1203 22.9131 24.4408C23.525 23.6147 24.2899 22.5989 24.5958 22.1655L25.1521 21.3799L24.6236 20.6756C24.3455 20.2829 23.9283 19.7547 23.7197 19.4973C22.6211 18.1294 21.5224 16.6396 21.5224 16.5177C21.5224 16.4364 21.9674 16.3822 22.6071 16.3822H23.678L24.0256 16.8834Z" fill="white"/>
<path d="M14.6409 18.2386C13.7648 18.6855 13.2781 19.3221 13.0973 20.2566L13.0139 20.7171H18.9103L18.8268 20.2024C18.7017 19.5252 18.062 18.6855 17.4084 18.3198C16.7408 17.9406 15.2946 17.9 14.6409 18.2386Z" fill="white"/>
<path fill-rule="evenodd" clip-rule="evenodd" d="M25.1196 13.1491C24.8968 13.064 24.6493 13.0708 24.4315 13.1681C24.2137 13.2655 24.0434 13.4454 23.9582 13.6682L18.1107 28.9617C18.0666 29.0724 18.045 29.1908 18.047 29.31C18.049 29.4292 18.0748 29.5467 18.1226 29.6559C18.1705 29.7651 18.2396 29.8636 18.3259 29.9458C18.4122 30.0281 18.514 30.0923 18.6253 30.1349C18.7366 30.1774 18.8553 30.1975 18.9745 30.1938C19.0936 30.19 19.2108 30.1627 19.3193 30.1133C19.4278 30.0639 19.5254 29.9934 19.6064 29.906C19.6874 29.8186 19.7502 29.7159 19.7912 29.604L25.6387 14.3105C25.7239 14.0877 25.717 13.8401 25.6197 13.6223C25.5223 13.4045 25.3425 13.2343 25.1196 13.1491ZM31.8335 20.2201L27.0516 17.272C26.951 17.2101 26.8393 17.1685 26.7227 17.1497C26.6061 17.1309 26.4869 17.1352 26.372 17.1625C26.257 17.1897 26.1486 17.2394 26.0529 17.3085C25.9571 17.3777 25.8759 17.465 25.8139 17.5655C25.7519 17.6661 25.7104 17.7778 25.6915 17.8945C25.6727 18.0111 25.6771 18.1302 25.7044 18.2452C25.7316 18.3601 25.7812 18.4685 25.8504 18.5643C25.9196 18.66 26.0069 18.7412 26.1074 18.8032L30.6608 21.6105C30.6653 21.6272 30.6653 21.6449 30.6608 21.6617L26.1074 24.469C26.0042 24.5297 25.9142 24.6104 25.8426 24.7063C25.771 24.8022 25.7192 24.9115 25.6904 25.0277C25.6615 25.1439 25.6562 25.2647 25.6746 25.383C25.6931 25.5013 25.7349 25.6147 25.7978 25.7166C25.8606 25.8185 25.9431 25.9068 26.0406 25.9764C26.138 26.046 26.2483 26.0955 26.3651 26.1219C26.4819 26.1483 26.6027 26.1511 26.7206 26.1302C26.8385 26.1093 26.951 26.0651 27.0516 26.0001L31.8335 23.0521L31.9077 22.9779C32.2629 22.6216 32.4623 22.1391 32.4623 21.6361C32.4623 21.1331 32.2629 20.6505 31.9077 20.2943L31.8335 20.2201Z" fill="#303030"/>
<mask id="mask0_61_370" style="mask-type:luminance" maskUnits="userSpaceOnUse" x="7" y="7" width="30" height="30">
<path d="M7.50781 36.0315V7.26172H36.2686V36.0315H7.50781Z" fill="white"/>
</mask>
<g mask="url(#mask0_61_370)">
<path fill-rule="evenodd" clip-rule="evenodd" d="M17.6439 24.4697L13.0905 21.6625C13.086 21.6457 13.086 21.628 13.0905 21.6112L17.6439 18.804C17.7471 18.7433 17.8372 18.6626 17.9088 18.5666C17.9804 18.4707 18.0321 18.3614 18.061 18.2452C18.0898 18.129 18.0952 18.0083 18.0767 17.89C18.0583 17.7717 18.0164 17.6583 17.9536 17.5563C17.8908 17.4544 17.8082 17.3661 17.7108 17.2965C17.6134 17.2269 17.5031 17.1775 17.3863 17.1511C17.2695 17.1247 17.1486 17.1218 17.0308 17.1427C16.9129 17.1636 16.8004 17.2079 16.6998 17.2728L11.9179 20.2209L11.8437 20.2951C11.4885 20.6513 11.2891 21.1338 11.2891 21.6369C11.2891 22.1399 11.4885 22.6224 11.8437 22.9786L11.9179 23.0529L16.6998 26.0009C16.9028 26.1261 17.1473 26.1655 17.3794 26.1105C17.6115 26.0554 17.8122 25.9104 17.9374 25.7074C18.0626 25.5044 18.1021 25.2599 18.047 25.0278C17.992 24.7957 17.847 24.595 17.6439 24.4697Z" fill="#303030"/>
</g>
<mask id="mask1_61_370" style="mask-type:luminance" maskUnits="userSpaceOnUse" x="7" y="7" width="30" height="30">
<path d="M7.50781 36.0315V7.26172H36.2686V36.0315H7.50781Z" fill="white"/>
</mask>
<g mask="url(#mask1_61_370)">
<path fill-rule="evenodd" clip-rule="evenodd" d="M31.9034 22.9817L31.8292 23.056L27.0473 26.004C26.8442 26.1292 26.5998 26.1686 26.3677 26.1136C26.1356 26.0585 25.9348 25.9135 25.8096 25.7105C25.6844 25.5075 25.645 25.263 25.7001 25.0309C25.7551 24.7988 25.9001 24.5981 26.1031 24.4729L30.6565 21.6656C30.661 21.6488 30.661 21.6311 30.6565 21.6143L26.1031 18.8071C25.9999 18.7464 25.9099 18.6657 25.8383 18.5697C25.7667 18.4738 25.7149 18.3645 25.6861 18.2483C25.6572 18.1321 25.6519 18.0114 25.6703 17.8931C25.6888 17.7748 25.7306 17.6614 25.7935 17.5595C25.8563 17.4575 25.9388 17.3692 26.0363 17.2996C26.1337 17.23 26.244 17.1806 26.3608 17.1542C26.4775 17.1278 26.5984 17.1249 26.7163 17.1458C26.8342 17.1667 26.9467 17.211 27.0473 17.2759L31.8292 20.224L31.9034 20.2982C32.2586 20.6544 32.458 21.1369 32.458 21.64C32.458 22.143 32.2586 22.6255 31.9034 22.9817ZM19.7869 29.6079C19.7459 29.7198 19.6831 29.8224 19.6021 29.9099C19.5211 29.9973 19.4235 30.0678 19.315 30.1172C19.2065 30.1666 19.0893 30.1939 18.9702 30.1976C18.851 30.2013 18.7323 30.1813 18.621 30.1388C18.5097 30.0962 18.4079 30.0319 18.3216 29.9497C18.2353 29.8675 18.1662 29.7689 18.1183 29.6598C18.0705 29.5506 18.0447 29.433 18.0427 29.3138C18.0407 29.1947 18.0623 29.0763 18.1064 28.9655L23.9539 13.6721C23.9949 13.5601 24.0578 13.4575 24.1388 13.37C24.2198 13.2826 24.3174 13.2121 24.4259 13.1627C24.5343 13.1134 24.6516 13.086 24.7707 13.0823C24.8898 13.0786 25.0085 13.0986 25.1199 13.1412C25.2312 13.1837 25.333 13.248 25.4193 13.3302C25.5056 13.4124 25.5747 13.511 25.6225 13.6201C25.6704 13.7293 25.6961 13.8469 25.6982 13.9661C25.7002 14.0852 25.6785 14.2036 25.6344 14.3144L19.7869 29.6079ZM17.165 26.138C17.004 26.138 16.8407 26.0949 16.6936 26.004L11.9117 23.056L11.8375 22.9817C11.4823 22.6255 11.2829 22.143 11.2829 21.64C11.2829 21.1369 11.4823 20.6544 11.8375 20.2982L11.9117 20.224L16.6936 17.2759C16.8966 17.1507 17.1411 17.1113 17.3732 17.1663C17.6053 17.2214 17.806 17.3664 17.9312 17.5694C18.0564 17.7725 18.0958 18.0169 18.0408 18.249C17.9858 18.4811 17.8408 18.6819 17.6377 18.8071L13.0843 21.6143C13.0798 21.6311 13.0798 21.6488 13.0843 21.6656L17.6377 24.4729C17.8044 24.5757 17.9329 24.7301 18.0038 24.9126C18.0747 25.0951 18.0842 25.2958 18.0307 25.4841C17.9772 25.6725 17.8638 25.8383 17.7075 25.9563C17.5513 26.0743 17.3608 26.1381 17.165 26.138ZM21.8704 7.24609C13.921 7.24609 7.47656 13.6905 7.47656 21.64C7.47656 29.5894 13.921 36.0338 21.8704 36.0338C29.8199 36.0338 36.2643 29.5894 36.2643 21.64C36.2643 13.6905 29.8199 7.24609 21.8704 7.24609Z" fill="white"/>
</g>
</g>
</g>
<defs>
<filter id="filter0_di_61_370" x="-26.8903" y="-24.0539" width="97.5603" height="98.5878" filterUnits="userSpaceOnUse" color-interpolation-filters="sRGB">
<feFlood flood-opacity="0" result="BackgroundImageFix"/>
<feColorMatrix in="SourceAlpha" type="matrix" values="0 0 0 0 0 0 0 0 0 0 0 0 0 0 0 0 0 0 127 0" result="hardAlpha"/>
<feOffset dy="3.08247"/>
<feGaussianBlur stdDeviation="13.6014"/>
<feComposite in2="hardAlpha" operator="out"/>
<feColorMatrix type="matrix" values="0 0 0 0 0.2325 0 0 0 0 0.2325 0 0 0 0 0.2325 0 0 0 0.11 0"/>
<feBlend mode="normal" in2="BackgroundImageFix" result="effect1_dropShadow_61_370"/>
<feBlend mode="normal" in="SourceGraphic" in2="effect1_dropShadow_61_370" result="shape"/>
<feColorMatrix in="SourceAlpha" type="matrix" values="0 0 0 0 0 0 0 0 0 0 0 0 0 0 0 0 0 0 127 0" result="hardAlpha"/>
<feOffset dx="-3.08247" dy="4.10996"/>
<feGaussianBlur stdDeviation="2.72285"/>
<feComposite in2="hardAlpha" operator="arithmetic" k2="-1" k3="1"/>
<feColorMatrix type="matrix" values="0 0 0 0 0.965833 0 0 0 0 0.965833 0 0 0 0 0.965833 0 0 0 0.31 0"/>
<feBlend mode="normal" in2="shape" result="effect2_innerShadow_61_370"/>
</filter>
<clipPath id="clip0_61_370">
<rect x="0.3125" y="0.0664062" width="43.1546" height="44.1821" rx="9.24742" fill="white"/>
</clipPath>
</defs>
</svg>
