<svg width="44" height="45" viewBox="0 0 44 45" fill="none" xmlns="http://www.w3.org/2000/svg">
<g filter="url(#filter0_i_61_26)">
<rect x="0.09375" y="0.273438" width="42.9617" height="43.9846" rx="9.20607" fill="#303030"/>
<path d="M10.7397 8.43342C9.23901 9.01578 7.8055 10.4717 7.24554 11.9724C6.3944 14.257 6.70798 17.8632 8.07429 20.9766L8.65665 22.3205L8.07429 23.6644C6.70798 26.7778 6.3944 30.384 7.24554 32.6686C7.8055 34.1917 9.26141 35.6252 10.7845 36.2076C13.0468 37.0587 16.6753 36.7451 19.7887 35.3788L21.1326 34.7965L22.4765 35.3788C25.5899 36.7451 29.1961 37.0587 31.4807 36.2076C33.0038 35.6476 34.4373 34.1917 35.0197 32.6686C35.8708 30.4064 35.5573 26.7778 34.191 23.6644L33.6086 22.3205L34.191 20.9766C35.5573 17.8632 35.8708 14.2346 35.0197 11.9724C34.4373 10.4493 33.0038 8.99339 31.4807 8.43342C29.1961 7.58228 25.5899 7.89586 22.4765 9.26217L21.1326 9.84453L19.7887 9.26217C16.6977 7.91826 12.9348 7.58228 10.7397 8.43342ZM17.5041 10.4493C18.2656 10.7181 18.8928 11.0093 18.8928 11.0764C18.8704 11.166 18.4 11.5244 17.84 11.8828C16.3617 12.8235 12.6436 16.4521 11.1205 18.4456L9.82137 20.1254L9.55259 19.4983C9.4182 19.1399 9.10462 18.1096 8.90303 17.1912C8.09669 13.6075 9.12702 11.1212 11.8596 10.0909C13.0244 9.66534 15.6674 9.82213 17.5041 10.4493ZM30.1144 10.0013C32.9814 10.8077 34.191 13.5179 33.3622 17.1912C33.1606 18.1096 32.847 19.1399 32.7127 19.4983L32.4215 20.1478L31.4359 18.8263C30.0024 16.8777 26.8666 13.7195 24.9628 12.286L23.2829 11.0317L24.022 10.7181C26.1947 9.84453 28.5465 9.57575 30.1144 10.0013ZM23.0589 13.3387C25.7467 15.2202 25.8139 15.153 21.1326 15.153C17.4817 15.153 17.0785 15.1082 17.3249 14.817C17.8176 14.2122 20.7518 12.2412 21.1326 12.2412C21.3342 12.2412 22.2078 12.7339 23.0589 13.3387ZM16.2049 22.3653L16.1826 28.9281L14.7042 27.3602C13.002 25.5459 11.0533 22.8581 11.0533 22.3205C11.0533 21.8053 12.9348 19.1623 14.6371 17.3256C15.3986 16.4969 16.0706 15.8249 16.1154 15.8249C16.1602 15.8249 16.2049 18.7815 16.2049 22.3653ZM30.1144 20.3942C30.7192 21.2454 31.212 22.1189 31.212 22.3205C31.212 22.8581 29.2633 25.5459 27.561 27.3602L26.0827 28.9281V22.3205V15.7129L27.561 17.2808C28.3673 18.132 29.5321 19.5431 30.1144 20.3942ZM20.2367 17.7288C20.2367 18.2216 20.3263 18.2888 21.1326 18.2888C21.939 18.2888 22.0286 18.2216 22.0286 17.7288C22.0286 17.2136 22.1182 17.1688 23.0365 17.1688H24.0444V18.2888V19.4087H21.1326H18.2208V18.2888V17.1688H19.2287C20.1471 17.1688 20.2367 17.2136 20.2367 17.7288ZM20.2367 21.7605C20.2367 22.2533 20.3263 22.3205 21.1326 22.3205C21.939 22.3205 22.0286 22.2533 22.0286 21.7605C22.0286 21.2454 22.1182 21.2006 23.0365 21.2006H24.0444V22.3205V23.4404H21.1326H18.2208V22.3205V21.2006H19.2287C20.1471 21.2006 20.2367 21.2454 20.2367 21.7605ZM11.1429 26.2178C12.666 28.2113 16.3617 31.8175 17.84 32.7358C18.4224 33.1166 18.8928 33.475 18.8928 33.5646C18.8928 33.8557 16.0706 34.6621 14.6371 34.7965C12.106 34.9981 10.2693 34.1917 9.26141 32.3998C8.49986 31.0335 8.47746 28.5249 9.21661 26.173C9.48539 25.2995 9.75418 24.5604 9.79897 24.5604C9.84377 24.5604 10.4485 25.2995 11.1429 26.2178ZM33.3622 27.4498C34.7509 33.5198 30.428 36.5212 24.022 33.9005L23.2829 33.6094L24.9628 32.355C26.8666 30.9215 30.0024 27.7633 31.4359 25.8147L32.4215 24.4932L32.7127 25.1427C32.847 25.5011 33.1606 26.5314 33.3622 27.4498ZM20.2367 25.9043C20.2367 26.5314 20.2815 26.5762 21.1326 26.5762C21.9838 26.5762 22.0286 26.5314 22.0286 25.9043C22.0286 25.2547 22.0734 25.2323 23.0365 25.2323H24.0444V26.3522V27.4722H21.1326H18.2208V26.3522V25.2323H19.2287C20.1919 25.2323 20.2367 25.2547 20.2367 25.9043ZM24.918 29.8464C24.4028 30.4736 21.5358 32.3998 21.1326 32.3998C20.7518 32.3998 17.8176 30.4288 17.3249 29.824C17.0785 29.5328 17.4817 29.488 21.1326 29.488C24.8956 29.488 25.1868 29.5104 24.918 29.8464Z" fill="white"/>
</g>
<defs>
<filter id="filter0_i_61_26" x="-2.97494" y="0.273438" width="46.0304" height="48.0762" filterUnits="userSpaceOnUse" color-interpolation-filters="sRGB">
<feFlood flood-opacity="0" result="BackgroundImageFix"/>
<feBlend mode="normal" in="SourceGraphic" in2="BackgroundImageFix" result="shape"/>
<feColorMatrix in="SourceAlpha" type="matrix" values="0 0 0 0 0 0 0 0 0 0 0 0 0 0 0 0 0 0 127 0" result="hardAlpha"/>
<feOffset dx="-3.06869" dy="4.09159"/>
<feGaussianBlur stdDeviation="2.71068"/>
<feComposite in2="hardAlpha" operator="arithmetic" k2="-1" k3="1"/>
<feColorMatrix type="matrix" values="0 0 0 0 0.965833 0 0 0 0 0.965833 0 0 0 0 0.965833 0 0 0 0.31 0"/>
<feBlend mode="normal" in2="shape" result="effect1_innerShadow_61_26"/>
</filter>
</defs>
</svg>
