<svg width="44" height="45" viewBox="0 0 44 45" fill="none" xmlns="http://www.w3.org/2000/svg">
<g filter="url(#filter0_i_61_106)">
<rect x="0.3125" y="0.953125" width="42.9617" height="43.9846" rx="9.20607" fill="#303030"/>
<g clip-path="url(#clip0_61_106)">
<path d="M21.4257 16.6706C27.0197 16.6706 31.5546 15.4405 31.5546 13.9232C31.5546 12.4058 27.0197 11.1758 21.4257 11.1758C15.8317 11.1758 11.2969 12.4058 11.2969 13.9232C11.2969 15.4405 15.8317 16.6706 21.4257 16.6706Z" fill="white"/>
<path d="M31.3364 15.4996C31.4079 15.4078 31.555 15.4614 31.555 15.5778V19.986C31.555 21.5024 27.0203 22.732 21.4251 22.732C15.8317 22.732 11.2969 21.5022 11.2969 19.986V15.5778C11.2969 15.4614 11.4441 15.4078 11.5156 15.4996C12.2042 16.3838 14.4609 17.1114 17.4597 17.4584C18.6773 17.5982 20.017 17.6768 21.425 17.6768C22.8329 17.6768 24.1727 17.5982 25.3903 17.4584C28.3907 17.1114 30.6478 16.3838 31.3364 15.4996Z" fill="white"/>
<path d="M29.5355 19.1584C29.5355 19.5955 29.1813 19.9496 28.7443 19.9496C28.3072 19.9496 27.9531 19.5953 27.9531 19.1584C27.9531 18.7215 28.3074 18.3672 28.7443 18.3672C29.1813 18.367 29.5355 18.7213 29.5355 19.1584Z" fill="#303030"/>
<path d="M31.3364 21.4879C31.4079 21.3961 31.555 21.4498 31.555 21.5661V25.9743C31.555 27.4906 27.0203 28.7203 21.4251 28.7203C15.8317 28.7203 11.2969 27.4905 11.2969 25.9743V21.5661C11.2969 21.4497 11.4441 21.3961 11.5156 21.4879C12.2042 22.3721 14.4609 23.0997 17.4597 23.4467C18.6773 23.5865 20.017 23.6651 21.425 23.6651C22.8329 23.6651 24.1727 23.5865 25.3903 23.4467C28.3907 23.0997 30.6478 22.3721 31.3364 21.4879Z" fill="white"/>
<path d="M29.5355 25.1467C29.5355 25.5838 29.1813 25.9379 28.7443 25.9379C28.3072 25.9379 27.9531 25.5836 27.9531 25.1467C27.9531 24.7097 28.3074 24.3555 28.7443 24.3555C29.1813 24.3553 29.5355 24.7096 29.5355 25.1467Z" fill="#303030"/>
<path d="M31.3364 27.4645C31.4079 27.3728 31.555 27.4265 31.555 27.5427V31.951C31.555 33.4673 27.0203 34.697 21.4251 34.697C15.8317 34.697 11.2969 33.4671 11.2969 31.951V27.5427C11.2969 27.4263 11.4441 27.3726 11.5156 27.4645C12.2042 28.3488 14.4609 29.0763 17.4597 29.4233C18.6773 29.5631 20.017 29.6417 21.425 29.6417C22.8329 29.6417 24.1727 29.5631 25.3903 29.4233C28.3907 29.0763 30.6478 28.3488 31.3364 27.4645Z" fill="white"/>
<path d="M29.5355 31.1232C29.5355 31.5603 29.1813 31.9144 28.7443 31.9144C28.3072 31.9144 27.9531 31.5602 27.9531 31.1232C27.9531 30.6862 28.3074 30.332 28.7443 30.332C29.1813 30.3319 29.5355 30.6862 29.5355 31.1232Z" fill="#303030"/>
</g>
</g>
<defs>
<filter id="filter0_i_61_106" x="-2.75619" y="0.953125" width="46.0304" height="48.0762" filterUnits="userSpaceOnUse" color-interpolation-filters="sRGB">
<feFlood flood-opacity="0" result="BackgroundImageFix"/>
<feBlend mode="normal" in="SourceGraphic" in2="BackgroundImageFix" result="shape"/>
<feColorMatrix in="SourceAlpha" type="matrix" values="0 0 0 0 0 0 0 0 0 0 0 0 0 0 0 0 0 0 127 0" result="hardAlpha"/>
<feOffset dx="-3.06869" dy="4.09159"/>
<feGaussianBlur stdDeviation="2.71068"/>
<feComposite in2="hardAlpha" operator="arithmetic" k2="-1" k3="1"/>
<feColorMatrix type="matrix" values="0 0 0 0 0.965833 0 0 0 0 0.965833 0 0 0 0 0.965833 0 0 0 0.31 0"/>
<feBlend mode="normal" in2="shape" result="effect1_innerShadow_61_106"/>
</filter>
<clipPath id="clip0_61_106">
<rect width="34.7785" height="34.7785" fill="white" transform="translate(4.41406 5.03906)"/>
</clipPath>
</defs>
</svg>
