<svg width="68" height="68" viewBox="0 0 68 68" fill="none" xmlns="http://www.w3.org/2000/svg">
<circle cx="34" cy="34" r="34" fill="#800080" fill-opacity="0.08"/>
<path fill-rule="evenodd" clip-rule="evenodd" d="M18.3431 16.3431C16 18.6863 16 22.4575 16 30V38C16 45.5425 16 49.3137 18.3431 51.6569C20.6863 54 24.4575 54 32 54H36C43.5425 54 47.3137 54 49.6569 51.6569C52 49.3137 52 45.5425 52 38V30C52 22.4575 52 18.6863 49.6569 16.3431C47.3137 14 43.5425 14 36 14H32C24.4575 14 20.6863 14 18.3431 16.3431ZM26 28.5C25.1716 28.5 24.5 29.1716 24.5 30C24.5 30.8284 25.1716 31.5 26 31.5H42C42.8284 31.5 43.5 30.8284 43.5 30C43.5 29.1716 42.8284 28.5 42 28.5H26ZM26 36.5C25.1716 36.5 24.5 37.1716 24.5 38C24.5 38.8284 25.1716 39.5 26 39.5H36C36.8284 39.5 37.5 38.8284 37.5 38C37.5 37.1716 36.8284 36.5 36 36.5H26Z" fill="#6F1B8A"/>
</svg>
