<svg width="68" height="68" viewBox="0 0 68 68" fill="none" xmlns="http://www.w3.org/2000/svg">
<circle cx="34" cy="34" r="34" fill="#800080" fill-opacity="0.08"/>
<path d="M43.0378 43.0026C43.3878 42.7296 43.7052 42.4122 44.3401 41.7773L52.2549 33.8625C52.4463 33.6711 52.3587 33.3416 52.103 33.2529C51.1688 32.9287 49.9535 32.3202 48.8166 31.1834C47.6798 30.0465 47.0713 28.8312 46.7471 27.897C46.6584 27.6413 46.3289 27.5537 46.1375 27.7451L38.2227 35.6599C37.5878 36.2948 37.2704 36.6122 36.9974 36.9622C36.6753 37.3751 36.3992 37.8218 36.174 38.2945C35.983 38.6952 35.841 39.1211 35.5571 39.9729L35.1902 41.0735L34.6069 42.8236L34.0599 44.4646C33.9202 44.8837 34.0293 45.3459 34.3417 45.6583C34.6541 45.9707 35.1163 46.0798 35.5354 45.9401L37.1764 45.3931L38.9265 44.8098L40.0271 44.4429L40.0272 44.4429C40.8789 44.1589 41.3048 44.017 41.7055 43.826C42.1782 43.6007 42.6249 43.3246 43.0378 43.0026Z" fill="#6F1B8A"/>
<path d="M54.733 31.3844C56.4223 29.6951 56.4223 26.9562 54.733 25.267C53.0438 23.5777 50.3049 23.5777 48.6156 25.267L48.3612 25.5214C48.3304 25.5522 48.315 25.5676 48.293 25.5927C48.1208 25.7896 48.0229 26.1018 48.0519 26.3618C48.0555 26.3949 48.0589 26.4138 48.0657 26.4517L48.0657 26.4517C48.1043 26.6667 48.1759 26.9811 48.306 27.3561C48.5662 28.1063 49.0577 29.091 49.9834 30.0166C50.909 30.9423 51.8937 31.4338 52.6439 31.694C53.0189 31.8241 53.3333 31.8957 53.5483 31.9343C53.5861 31.9411 53.6051 31.9445 53.6382 31.9481C53.8982 31.9771 54.2104 31.8792 54.4073 31.707C54.4324 31.685 54.4478 31.6696 54.4786 31.6388L54.733 31.3844Z" fill="#6F1B8A"/>
<path fill-rule="evenodd" clip-rule="evenodd" d="M18.3431 16.3431C16 18.6863 16 22.4575 16 30V38C16 45.5425 16 49.3137 18.3431 51.6569C20.6863 54 24.4575 54 32 54H36C43.5425 54 47.3137 54 49.6569 51.6569C51.9624 49.3513 51.9994 45.6631 52 38.3601L46.3634 43.9968C45.8239 44.5367 45.382 44.9789 44.8829 45.3681C44.2982 45.8242 43.6656 46.2152 42.9962 46.5342C42.4249 46.8065 41.8318 47.004 41.1076 47.2451L36.4842 48.7862C34.987 49.2852 33.3364 48.8956 32.2205 47.7796C31.1045 46.6637 30.7149 45.0131 31.2139 43.5159L31.7609 41.8749L32.7111 39.0242L32.755 38.8926C32.9961 38.1684 33.1936 37.5752 33.4659 37.0039C33.7849 36.3345 34.1759 35.7018 34.6319 35.1172C35.0212 34.6181 35.4634 34.1762 36.0034 33.6366L44.0163 25.6238L46.2399 23.4001L46.4944 23.1456C47.9252 21.7148 49.8006 20.9996 51.6759 21C51.3733 18.9389 50.7883 17.4745 49.6569 16.3431C47.3137 14 43.5425 14 36 14H32C24.4575 14 20.6863 14 18.3431 16.3431ZM24.5 28C24.5 27.1716 25.1716 26.5 26 26.5H39C39.8284 26.5 40.5 27.1716 40.5 28C40.5 28.8284 39.8284 29.5 39 29.5H26C25.1716 29.5 24.5 28.8284 24.5 28ZM24.5 36C24.5 35.1716 25.1716 34.5 26 34.5H31C31.8284 34.5 32.5 35.1716 32.5 36C32.5 36.8284 31.8284 37.5 31 37.5H26C25.1716 37.5 24.5 36.8284 24.5 36ZM24.5 44C24.5 43.1716 25.1716 42.5 26 42.5H29C29.8284 42.5 30.5 43.1716 30.5 44C30.5 44.8284 29.8284 45.5 29 45.5H26C25.1716 45.5 24.5 44.8284 24.5 44Z" fill="#6F1B8A"/>
</svg>
