<svg width="68" height="68" viewBox="0 0 68 68" fill="none" xmlns="http://www.w3.org/2000/svg">
<circle cx="34" cy="34" r="34" fill="#800080" fill-opacity="0.08"/>
<path d="M52 14H22C20.9391 14 19.9217 14.4214 19.1716 15.1716C18.4214 15.9217 18 16.9391 18 18V24H14V28H18V32H14V36H18V40H14V44H18V50C18 51.0609 18.4214 52.0783 19.1716 52.8284C19.9217 53.5786 20.9391 54 22 54H52C52.5304 54 53.0391 53.7893 53.4142 53.4142C53.7893 53.0391 54 52.5304 54 52V16C54 15.4696 53.7893 14.9609 53.4142 14.5858C53.0391 14.2107 52.5304 14 52 14ZM36 19.998C39.296 19.998 42 22.7 42 25.998C41.9953 27.588 41.3617 29.1116 40.2375 30.2361C39.1134 31.3606 37.59 31.9947 36 32C32.706 32 30 29.294 30 25.998C30 22.7 32.706 19.998 36 19.998ZM48 46H24V44.5C24 40.062 29.41 35.5 36 35.5C42.59 35.5 48 40.062 48 44.5V46Z" fill="#6F1B8A"/>
</svg>
