<svg width="45" height="45" viewBox="0 0 45 45" fill="none" xmlns="http://www.w3.org/2000/svg">
<g id="frm-file">
<path id="Vector" d="M12.5246 30.5518H10.1922C10.1519 30.5518 10.1173 30.5665 10.0882 30.5953C10.0591 30.6247 10.0444 30.6592 10.0444 30.6989V34.2283C10.0444 34.2679 10.0591 34.3025 10.0882 34.3319C10.1173 34.3613 10.1519 34.3754 10.1922 34.3754H10.6345C10.6745 34.3754 10.709 34.3613 10.7384 34.3319C10.7675 34.3025 10.7819 34.2679 10.7819 34.2283V32.9772H12.4155C12.4555 32.9772 12.49 32.9625 12.5191 32.9337C12.5482 32.9043 12.5629 32.8697 12.5629 32.8294V32.4418C12.5629 32.4015 12.5482 32.367 12.5191 32.3382C12.49 32.3088 12.4555 32.2941 12.4155 32.2941H10.7819V31.2342H12.5246C12.5645 31.2342 12.5994 31.2202 12.6285 31.1907C12.6576 31.1619 12.672 31.1268 12.672 31.0871V30.6989C12.672 30.6592 12.6576 30.6247 12.6285 30.5953C12.5994 30.5665 12.5645 30.5518 12.5246 30.5518ZM15.5346 32.8461C15.7713 32.7552 15.9504 32.6158 16.0725 32.4284C16.1944 32.2404 16.2555 32.0139 16.2555 31.7478C16.2555 31.373 16.1371 31.0794 15.9005 30.8684C15.6638 30.6573 15.3178 30.5518 14.8627 30.5518H13.4533C13.413 30.5518 13.3785 30.5665 13.3494 30.5953C13.3203 30.6247 13.3055 30.6592 13.3055 30.6989V34.2283C13.3055 34.2679 13.3203 34.3025 13.3494 34.3319C13.3785 34.3613 13.413 34.3754 13.4533 34.3754H13.8956C13.9356 34.3754 13.9701 34.3613 13.9995 34.3319C14.0286 34.3025 14.043 34.2679 14.043 34.2283V32.9554H14.7696L15.4854 34.2283C15.4998 34.2571 15.5244 34.2891 15.5589 34.3236C15.5935 34.3581 15.6472 34.3754 15.7201 34.3754H16.1845C16.2174 34.3754 16.2455 34.3639 16.2692 34.3402C16.2929 34.3166 16.3047 34.2884 16.3047 34.2552C16.3047 34.2373 16.2993 34.2174 16.2884 34.195L15.5346 32.8461ZM15.3325 32.163C15.2084 32.2359 15.0427 32.2723 14.8352 32.2723H14.043V31.2342H14.8352C15.0427 31.2342 15.2084 31.2694 15.3325 31.3385C15.4563 31.4076 15.518 31.5438 15.518 31.7479C15.518 31.9519 15.4563 32.09 15.3325 32.163ZM20.4015 30.5518H20.0302C19.9573 30.5518 19.9035 30.5716 19.869 30.6119C19.8345 30.6515 19.8098 30.681 19.7951 30.6989L18.7573 32.502L17.7196 30.6989C17.7049 30.681 17.6802 30.6515 17.6457 30.6119C17.6112 30.5716 17.5574 30.5518 17.4845 30.5518H17.1132C17.0729 30.5518 17.0384 30.5665 17.0093 30.5953C16.9802 30.6247 16.9655 30.6592 16.9655 30.6989V34.2283C16.9655 34.2679 16.9802 34.3025 17.0093 34.3319C17.0384 34.3613 17.0729 34.3754 17.1132 34.3754H17.5555C17.5955 34.3754 17.63 34.3613 17.6594 34.3319C17.6885 34.3025 17.7029 34.2679 17.7029 34.2283V32.092L18.4132 33.3213C18.4315 33.3507 18.457 33.3808 18.4897 33.4115C18.5226 33.4422 18.5642 33.4575 18.6154 33.4575H18.8993C18.9502 33.4575 18.9924 33.4422 19.025 33.4115C19.0576 33.3808 19.0832 33.3507 19.1015 33.3213L19.8118 32.092V34.2283C19.8118 34.2679 19.8261 34.3025 19.8552 34.3319C19.8844 34.3613 19.9189 34.3754 19.9592 34.3754H20.4015C20.4418 34.3754 20.4763 34.3613 20.5054 34.3319C20.5345 34.3025 20.5492 34.2679 20.5492 34.2283V30.6989C20.5492 30.6592 20.5345 30.6247 20.5054 30.5953C20.4763 30.5665 20.4418 30.5518 20.4015 30.5518Z" fill="black"/>
<path id="Vector_2" d="M39.6357 12.2408C39.628 12.2155 39.6212 12.1912 39.6095 12.1674C39.5957 12.1394 39.5765 12.1146 39.5573 12.0892C39.5435 12.0709 39.5358 12.049 39.5195 12.0327L32.137 4.65477L29.1864 1.70413C29.1434 1.66112 29.0927 1.63089 29.0395 1.60698C29.0247 1.60019 29.0097 1.59627 28.9944 1.591C28.9545 1.57764 28.9143 1.56965 28.8724 1.56677C28.8601 1.56581 28.849 1.55957 28.8365 1.55957H10.5828C9.13434 1.55957 7.95616 2.73775 7.95616 4.18649V27.2876H7.27529C6.28196 27.2876 5.47412 28.0955 5.47412 29.0888V36.0619C5.47412 37.0553 6.28196 37.8631 7.27529 37.8631H7.95616V40.8514C7.95616 42.2995 9.13434 43.4777 10.5828 43.4777H37.0368C38.4852 43.4777 39.6634 42.2995 39.6634 40.8514V12.38C39.6634 12.3651 39.6562 12.3518 39.6548 12.3371C39.6517 12.3041 39.6453 12.2725 39.6357 12.2408ZM37.9847 11.892H30.9722C30.0669 11.892 29.3303 11.1551 29.3303 10.2501V3.23873L31.5204 5.42735L37.9847 11.892ZM6.45658 36.0619V29.0888C6.45658 28.6372 6.82372 28.2701 7.27529 28.2701H23.1171C23.6793 28.2701 24.1369 28.7281 24.1369 29.2903V35.8611C24.1369 36.4233 23.6793 36.8806 23.1171 36.8806H7.27529C6.82371 36.8806 6.45658 36.5135 6.45658 36.0619ZM37.0368 42.4952H10.5828C9.6761 42.4952 8.93862 41.7577 8.93862 40.8514V37.8631H23.1171C24.2211 37.8631 25.1194 36.9651 25.1194 35.8611V29.2903C25.1194 28.1863 24.2211 27.2876 23.1171 27.2876H8.93862V4.18649C8.93862 3.2795 9.6761 2.54203 10.5828 2.54203H28.3479V10.2501C28.3479 11.6969 29.5251 12.8744 30.9722 12.8744H38.6809V40.8514C38.6809 41.7577 37.9434 42.4952 37.0368 42.4952Z" fill="black"/>
<path id="Vector_3" d="M32.2092 18.8306H15.4419C15.1707 18.8306 14.9507 19.0506 14.9507 19.3218C14.9507 19.593 15.1707 19.813 15.4419 19.813H32.2092C32.4804 19.813 32.7004 19.593 32.7004 19.3218C32.7004 19.0506 32.4804 18.8306 32.2092 18.8306ZM15.4419 15.9952H23.8257C24.0969 15.9952 24.317 15.7751 24.317 15.5039C24.317 15.2327 24.0969 15.0127 23.8257 15.0127H15.4419C15.1707 15.0127 14.9507 15.2327 14.9507 15.5039C14.9507 15.7751 15.1707 15.9952 15.4419 15.9952ZM32.2092 22.6491H15.4419C15.1707 22.6491 14.9507 22.8691 14.9507 23.1403C14.9507 23.4115 15.1707 23.6316 15.4419 23.6316H32.2092C32.4804 23.6316 32.7004 23.4115 32.7004 23.1403C32.7004 22.8691 32.4804 22.6491 32.2092 22.6491Z" fill="black"/>
</g>
</svg>
