<svg xmlns="http://www.w3.org/2000/svg" width="126" height="126" viewBox="0 0 126 126" fill="none">
  <path d="M26.25 63.0002H21V105C21 107.785 22.1062 110.456 24.0754 112.425C26.0445 114.394 28.7152 115.5 31.5 115.5H57.75V63.0002H26.25ZM94.5 63.0002H68.25V115.5H94.5C97.2848 115.5 99.9555 114.394 101.925 112.425C103.894 110.456 105 107.785 105 105V63.0002H94.5ZM98.6528 36.7502C99.4162 34.1962 99.7862 31.5407 99.75 28.8752C99.75 18.7427 91.5075 10.5002 81.375 10.5002C72.8595 10.5002 67.1737 18.2807 63.504 26.6965C59.8867 18.7427 53.9123 10.5002 44.625 10.5002C34.4925 10.5002 26.25 18.7427 26.25 28.8752C26.25 32.0042 26.6648 34.5925 27.3472 36.7502H10.5V57.7502H57.75V47.2502H68.25V57.7502H115.5V36.7502H98.6528ZM36.75 28.8752C36.75 24.5335 40.2833 21.0002 44.625 21.0002C49.287 21.0002 53.6235 29.0065 56.1645 36.7502H42C40.0365 36.7502 36.75 36.7502 36.75 28.8752ZM81.375 21.0002C85.7168 21.0002 89.25 24.5335 89.25 28.8752C89.25 36.7502 85.9635 36.7502 84 36.7502H70.9958C73.6732 28.4762 77.5635 21.0002 81.375 21.0002Z" fill="url(#paint0_linear_1126_123)"/>
  <defs>
    <linearGradient id="paint0_linear_1126_123" x1="-1.02438" y1="70.6832" x2="173.634" y2="-1.53634" gradientUnits="userSpaceOnUse">
      <stop stop-color="#F6A104"/>
      <stop offset="0.27" stop-color="#FFECB3"/>
      <stop offset="0.55" stop-color="#FFC107"/>
      <stop offset="1" stop-color="#E66800"/>
    </linearGradient>
  </defs>
</svg>