<svg width="105" height="105" viewBox="0 0 105 105" fill="none" xmlns="http://www.w3.org/2000/svg">
<g filter="url(#filter0_i_112_1870)">
<g clip-path="url(#clip0_112_1870)">
<rect x="0.166748" y="0.925781" width="104" height="104" rx="22.6406" fill="#303030"/>
<path d="M28.5267 9.16293C25.1409 9.56467 22.3414 10.5977 19.731 12.4343C19.6364 12.5108 18.8987 13.123 18.1232 13.7925C10.9353 19.9526 9.63011 31.1057 15.1913 38.7962C19.958 45.358 27.6377 48.0937 35.7146 46.0659C38.6276 45.3389 41.4461 43.6937 43.8672 41.2832C46.2128 38.9493 47.4612 36.9597 48.4637 33.9753C51.2065 25.7874 48.2746 17.1021 41.1056 12.2047C38.5141 10.4447 35.9795 9.54554 32.4044 9.1438C30.5129 8.93336 30.5318 8.93336 28.5267 9.16293ZM25.9542 21.0813C27.2972 21.7509 28.5457 23.1283 29.0942 24.5631C29.4914 25.6344 29.8887 28.0066 29.7184 28.3127C29.6806 28.4083 27.2972 28.4657 24.441 28.4657H19.2581V29.0396C19.2581 29.7666 19.7878 31.3353 20.185 31.7944C20.3552 31.9857 20.847 32.3492 21.301 32.6171C21.963 33.0188 22.3603 33.0953 23.4952 33.1145C25.1976 33.1145 26.3136 32.5788 26.8811 31.4692C27.2405 30.7805 27.2594 30.7614 28.3565 30.7614C29.5671 30.7614 29.6049 30.8188 29.2077 31.8136C28.47 33.5927 26.8811 34.7788 24.6869 35.1806C22.3414 35.6206 20.0904 34.8745 18.5393 33.1527C17.3855 31.871 16.9693 30.6657 16.8369 28.217C16.7613 26.5144 16.7991 26.2083 17.272 24.9074C18.3123 22.0187 20.7903 20.3352 23.76 20.5074C24.5356 20.5648 25.2733 20.7561 25.9542 21.0813ZM34.2014 21.1387C34.4662 21.5213 34.7689 21.9613 34.8634 22.1335C35.5444 23.3004 37.3225 25.577 37.417 25.4622C37.4927 25.3666 38.3439 24.2187 39.2897 22.8604L41.0299 20.4309H42.354C43.2052 20.4309 43.6592 20.5074 43.6592 20.6413C43.6592 20.7752 42.6566 22.21 41.4271 23.8552C40.1976 25.5005 39.1194 26.9544 39.0438 27.0883C38.8735 27.3753 39.2897 28.0448 42.3162 32.1962C43.47 33.7649 44.4158 35.1232 44.4158 35.1997C44.4158 35.2953 43.7537 35.3527 42.9404 35.3527H41.465L40.3868 33.7649C39.7815 32.904 38.8357 31.5266 38.2872 30.7231L37.2846 29.2501L35.2228 32.2918L33.161 35.3527H31.7991C31.0425 35.3527 30.4183 35.2953 30.4183 35.1997C30.4183 35.0084 30.9668 34.1858 32.6882 31.8136C33.5204 30.6466 34.5608 29.2118 34.9769 28.5996L35.7336 27.4901L35.0148 26.4953C34.6365 25.9405 34.069 25.1944 33.7853 24.8309C32.2909 22.8987 30.7966 20.7943 30.7966 20.6222C30.7966 20.5074 31.4019 20.4309 32.272 20.4309H33.7285L34.2014 21.1387Z" fill="white"/>
<path d="M21.4366 23.0529C20.2449 23.6842 19.5828 24.5833 19.3369 25.9034L19.2234 26.5538H27.2436L27.1301 25.8268C26.9599 24.8703 26.0898 23.6842 25.2008 23.1677C24.2928 22.632 22.3256 22.5746 21.4366 23.0529Z" fill="white"/>
<path d="M90.2114 30.9226C89.9617 30.6328 89.6986 30.3422 89.422 30.0508C89.6149 29.8432 89.8022 29.6362 89.9837 29.43C93.3988 25.5275 94.8414 21.6119 93.5052 19.2605C92.2243 17.0042 88.4135 16.3314 83.6409 17.2746C83.1714 17.3683 82.704 17.4736 82.2387 17.5904C82.1493 17.2789 82.055 16.9688 81.9557 16.6602C80.3365 11.6998 77.7215 8.4744 75.049 8.47656C72.4872 8.47656 70.0105 11.4987 68.4296 16.1735C68.2735 16.635 68.1295 17.0994 67.9976 17.5666C67.687 17.4887 67.3749 17.4166 67.0614 17.3503C62.0271 16.3011 57.9738 16.9934 56.6397 19.3492C55.3609 21.6054 56.6971 25.2981 59.8909 29.0233C60.2086 29.3911 60.5349 29.7516 60.8696 30.1049C60.4739 30.516 60.1015 30.9291 59.7526 31.3402C56.6354 35.0134 55.3758 38.6434 56.6524 40.891C57.9716 43.2143 61.9676 43.9736 66.8337 43.0002C67.2281 42.9209 67.6203 42.8314 68.0104 42.7319C68.1522 43.2381 68.309 43.7407 68.4806 44.2397C70.0552 48.8194 72.517 51.7419 75.0703 51.7419C77.7087 51.7419 80.3514 48.5987 81.9536 43.8265C82.0812 43.4501 82.1983 43.0586 82.3132 42.6562C82.8167 42.7831 83.3239 42.8956 83.8345 42.9937C88.522 43.8958 92.2434 43.1884 93.5179 40.9386C94.835 38.6131 93.4754 34.7149 90.2114 30.9226ZM58.2142 20.2707C59.0355 18.8213 62.3484 18.2545 66.6954 19.1631C66.9735 19.2208 67.2564 19.2857 67.5444 19.3578C67.1195 21.2666 66.8195 23.2019 66.6465 25.151C65.0789 26.2718 63.5842 27.4944 62.1718 28.8113C61.8612 28.4839 61.5583 28.1486 61.2633 27.8054C58.5248 24.6167 57.4439 21.6314 58.2142 20.2707ZM66.4848 32.6619C65.3996 31.8247 64.3889 30.9681 63.4719 30.1071C64.3868 29.2504 65.3975 28.3981 66.4827 27.5631C66.4429 28.4125 66.4238 29.2627 66.4252 30.1136C66.4252 30.9645 66.4451 31.8139 66.4848 32.6619ZM66.4848 41.1852C64.6405 41.6028 62.7363 41.6717 60.8675 41.3885C60.3552 41.3478 59.8565 41.2007 59.4023 40.9562C58.9481 40.7117 58.5481 40.3752 58.227 39.9673C57.4503 38.6044 58.4631 35.6883 61.1292 32.5473C61.464 32.1535 61.8101 31.7699 62.1676 31.3964C63.5806 32.7214 65.0782 33.9499 66.6507 35.074C66.8255 37.0477 67.1283 39.0076 67.5572 40.9407C67.2025 41.0316 66.8444 41.1138 66.4827 41.1874L66.4848 41.1852ZM81.5919 23.7947C80.8784 23.3375 80.1563 22.8955 79.4258 22.4686C78.7052 22.0475 77.9768 21.6415 77.2406 21.2507C78.5024 20.712 79.7428 20.2512 80.9408 19.877C81.2225 21.1709 81.4398 22.4785 81.5919 23.7947ZM70.1509 16.7727C71.5042 12.7707 73.5085 10.3262 75.0533 10.3262C76.698 10.324 78.8343 12.961 80.2322 17.2421C80.323 17.5219 80.4081 17.8031 80.4876 18.0858C78.6524 18.664 76.857 19.365 75.1128 20.1842C73.3745 19.355 71.5831 18.646 69.7509 18.062C69.8743 17.6294 70.0076 17.1996 70.1509 16.7727ZM69.2998 19.8532C70.549 20.2529 71.7776 20.7165 72.9808 21.242C71.4886 22.0237 70.036 22.8753 68.6232 23.7968C68.7934 22.4167 69.0211 21.0949 69.2998 19.8532ZM68.6253 36.4238C69.3303 36.8839 70.0459 37.3259 70.7722 37.7499C71.5127 38.1826 72.2624 38.5979 73.0213 38.996C71.8093 39.5397 70.5708 40.0199 69.3104 40.4345C69.0176 39.1106 68.789 37.7728 68.6253 36.426V36.4238ZM80.2344 43.2295C79.6683 45.0618 78.7753 46.7726 77.6002 48.2764C77.31 48.7075 76.936 49.0735 76.5012 49.3518C76.0665 49.6301 75.5802 49.8148 75.0724 49.8945C73.5213 49.8945 71.5446 47.5474 70.1998 43.6297C70.041 43.1667 69.8949 42.6995 69.7615 42.2279C71.6025 41.6241 73.401 40.8942 75.1448 40.043C76.9037 40.8688 78.714 41.5762 80.5642 42.1608C80.462 42.5199 80.3521 42.8762 80.2344 43.2295ZM81.0046 40.3653C79.7939 39.9846 78.5364 39.5152 77.2555 38.9678C77.9775 38.5828 78.7045 38.1754 79.4364 37.7456C80.1883 37.3043 80.9202 36.8522 81.6323 36.3892C81.4901 37.7246 81.2806 39.0517 81.0046 40.3653ZM81.9557 30.1049C81.9557 31.4188 81.9153 32.7311 81.8344 34.0421C80.7854 34.7646 79.679 35.4698 78.5279 36.1448C77.3789 36.8176 76.2448 37.4363 75.1299 37.9965C73.9568 37.4254 72.8063 36.8096 71.6786 36.1491C70.558 35.4929 69.4629 34.7942 68.3934 34.0529C68.2941 32.7405 68.2444 31.4267 68.2444 30.1114C68.2444 28.7976 68.2927 27.4845 68.3891 26.1721C70.5281 24.6874 72.7743 23.3691 75.1086 22.2285C76.2661 22.801 77.403 23.4147 78.5194 24.0694C79.64 24.7242 80.7393 25.4157 81.8174 26.144C81.9096 27.4621 81.9557 28.7825 81.9557 30.1049ZM83.9898 19.0874C88.0794 18.2805 91.1604 18.8235 91.9328 20.1842C92.7562 21.6336 91.5774 24.8309 88.6262 28.2013C88.4631 28.3873 88.2943 28.5741 88.1198 28.7615C86.6825 27.4405 85.1583 26.2205 83.5579 25.1099C83.3967 23.1824 83.1089 21.2679 82.6962 19.3794C83.1359 19.2698 83.5671 19.1725 83.9898 19.0874ZM83.7132 27.4917C84.7932 28.2931 85.8315 29.1509 86.824 30.0617C85.8361 30.9871 84.8013 31.8593 83.7239 32.6749C83.7565 31.8182 83.7728 30.9616 83.7728 30.1049C83.7728 29.2339 83.753 28.3628 83.7132 27.4917ZM91.9455 40.0149C91.171 41.3799 88.1837 41.9488 84.1728 41.1787C83.7132 41.0907 83.2423 40.9855 82.76 40.8629C83.1627 38.95 83.4378 37.0116 83.5834 35.061C85.181 33.9318 86.7003 32.6922 88.1305 31.351C88.3815 31.6149 88.6198 31.8774 88.8454 32.1384C90.1243 33.5523 91.1362 35.1934 91.8306 36.9798C92.0529 37.4508 92.1777 37.9632 92.1975 38.4852C92.2173 39.0073 92.1315 39.5279 91.9455 40.0149ZM73.1808 26.7302C72.53 27.1123 72.0052 27.682 71.6728 28.3674C71.3404 29.0527 71.2154 29.8228 71.3134 30.5804C71.4115 31.3379 71.7284 32.0489 72.2239 32.6234C72.7194 33.1979 73.3713 33.6101 74.0973 33.808C74.8232 34.0058 75.5905 33.9803 76.3022 33.7348C77.0139 33.4893 77.638 33.0347 78.0957 32.4286C78.5533 31.8224 78.8238 31.0919 78.8731 30.3295C78.9224 29.567 78.7482 28.8068 78.3726 28.145C78.1231 27.7055 77.7909 27.3202 77.3949 27.0112C76.999 26.7023 76.5471 26.4756 76.065 26.3442C75.5828 26.2128 75.08 26.1793 74.5851 26.2455C74.0903 26.3118 73.6131 26.4765 73.1808 26.7302Z" fill="white"/>
<path d="M71.7593 57.2223C72.7949 56.6459 74.1438 56.6433 75.1786 57.2223C80.3843 60.0823 85.5916 62.9377 90.7965 65.7994C91.7754 66.3356 92.4303 67.3948 92.4203 68.4916V85.6981C92.4276 86.8403 91.708 87.9249 90.6752 88.4489C85.4866 91.293 80.3007 94.1407 75.113 96.9849C74.0559 97.5725 72.6799 97.5273 71.6559 96.8915C70.1003 96.0147 68.5421 95.1423 66.9864 94.2664C66.6685 94.0821 66.3102 93.9355 66.0857 93.6358C66.2841 93.3757 66.6389 93.3433 66.9272 93.2298C67.5765 93.0291 68.1729 92.7068 68.7694 92.3941C68.9203 92.2938 69.1044 92.3322 69.249 92.422C70.5792 93.1636 71.8976 93.9267 73.2322 94.6611C73.517 94.8209 73.8053 94.6087 74.0486 94.4768C79.1402 91.6789 84.2381 88.8916 89.3288 86.0928C89.5175 86.0046 89.6217 85.8099 89.6064 85.609C89.61 79.933 89.6073 74.2559 89.6082 68.5798C89.6298 68.3519 89.4941 68.1423 89.2821 68.049C84.1115 65.2178 78.9436 62.3823 73.7739 59.5504C73.6843 59.4906 73.5782 59.4585 73.4695 59.4583C73.3608 59.4581 73.2546 59.49 73.1649 59.5496C67.9951 62.3823 62.8281 65.2204 57.6584 68.0515C57.4471 68.1449 57.3054 68.351 57.3305 68.5798C57.3314 74.2559 57.3305 79.933 57.3305 85.6099C57.3216 85.7079 57.3437 85.8063 57.394 85.8917C57.4442 85.9771 57.5202 86.0455 57.6117 86.0876C58.9912 86.8482 60.3726 87.6035 61.753 88.3615C62.5307 88.7685 63.4856 89.0103 64.3424 88.6985C65.0986 88.4348 65.6286 87.6846 65.6142 86.9041C65.6213 81.2611 65.6106 75.6173 65.6195 69.9752C65.6006 69.7247 65.845 69.5177 66.0955 69.5413C66.7584 69.537 67.4221 69.5326 68.085 69.543C68.3617 69.537 68.5521 69.8067 68.5179 70.0591C68.5152 75.7378 68.525 81.4166 68.5134 87.0953C68.5152 88.6087 67.8757 90.2555 66.4359 90.996C64.6621 91.8894 62.4697 91.6999 60.7174 90.8432C59.2004 90.1071 57.7527 89.2383 56.2626 88.4496C55.2271 87.9285 54.5111 86.8396 54.5184 85.6983V68.4916C54.5076 67.3721 55.1884 66.2936 56.1979 65.7653C61.3856 62.9188 66.5724 60.0701 71.7593 57.2223Z" fill="white"/>
<path d="M76.0155 70.3742C77.9174 70.2579 79.9536 70.3053 81.6651 71.1952C82.9902 71.8771 83.7248 73.3084 83.7482 74.7066C83.7112 74.8952 83.5036 74.9992 83.314 74.9863C82.7622 74.9855 82.2103 74.9934 81.6584 74.9827C81.4243 74.9913 81.2883 74.7863 81.2589 74.5897C81.1004 73.9207 80.7162 73.2581 80.0532 72.9354C79.0355 72.4515 77.8554 72.4758 76.7456 72.4859C75.9354 72.5268 75.0642 72.5934 74.3779 73.0459C73.8509 73.3886 73.6909 74.0806 73.8789 74.6378C74.0562 75.0379 74.5425 75.167 74.9404 75.286C77.2325 75.8554 79.6614 75.7987 81.9098 76.548C82.8406 76.8535 83.7512 77.4473 84.0698 78.3729C84.4866 79.6135 84.3039 81.0964 83.3746 82.0924C82.6209 82.912 81.5233 83.3581 80.4285 83.6003C78.9721 83.9088 77.4606 83.9166 75.9816 83.7797C74.5908 83.6291 73.1435 83.2821 72.0699 82.3821C71.1518 81.6249 70.7034 80.4453 70.7479 79.3067C70.7585 79.1144 70.9601 78.9803 71.154 78.9961C71.7097 78.9918 72.2655 78.9904 72.8212 78.9968C73.0431 78.9817 73.2077 79.1639 73.2191 79.3626C73.3216 80 73.5738 80.669 74.159 81.0469C75.2884 81.7389 76.7056 81.6916 77.9988 81.7109C79.0702 81.6658 80.2729 81.6521 81.1472 80.9796C81.6085 80.596 81.7452 79.9542 81.6205 79.402C81.4855 78.9359 80.9721 78.7187 80.5311 78.5766C78.2684 77.8968 75.8124 78.1435 73.5716 77.3747C72.6618 77.0694 71.7821 76.4921 71.4326 75.6044C70.945 74.3481 71.1684 72.7942 72.1952 71.8319C73.1963 70.8747 74.6415 70.5061 76.0155 70.3742Z" fill="white"/>
<path d="M32.196 58.1217C30.3109 56.1362 28.656 54.1367 28.335 53.6942L28.2722 53.6981C28.006 54.1553 26.6072 56.3617 24.9769 58.5612C11.0819 78.7084 29.323 90.6192 29.323 90.6192L29.4759 90.7149C29.7224 92.6952 30.233 95.5624 30.233 95.5624L31.5304 95.4834C31.5304 95.4834 31.6697 92.5976 31.673 90.5812L31.8118 90.4467C31.8118 90.4467 48.4326 76.4343 32.196 58.1217ZM30.4979 90.2537C30.1128 89.9747 29.7559 89.6588 29.4323 89.3104L29.1627 68.3245L31.3783 89.192C31.1182 89.5722 30.8234 89.9276 30.4979 90.2537Z" fill="white"/>
</g>
</g>
<defs>
<filter id="filter0_i_112_1870" x="0.166748" y="0.925781" width="104" height="114.062" filterUnits="userSpaceOnUse" color-interpolation-filters="sRGB">
<feFlood flood-opacity="0" result="BackgroundImageFix"/>
<feBlend mode="normal" in="SourceGraphic" in2="BackgroundImageFix" result="shape"/>
<feColorMatrix in="SourceAlpha" type="matrix" values="0 0 0 0 0 0 0 0 0 0 0 0 0 0 0 0 0 0 127 0" result="hardAlpha"/>
<feOffset dy="10.0625"/>
<feGaussianBlur stdDeviation="9.81094"/>
<feComposite in2="hardAlpha" operator="arithmetic" k2="-1" k3="1"/>
<feColorMatrix type="matrix" values="0 0 0 0 1 0 0 0 0 1 0 0 0 0 1 0 0 0 0.41 0"/>
<feBlend mode="normal" in2="shape" result="effect1_innerShadow_112_1870"/>
</filter>
<clipPath id="clip0_112_1870">
<rect x="0.166748" y="0.925781" width="104" height="104" rx="22.6406" fill="white"/>
</clipPath>
</defs>
</svg>
