<svg width="51" height="51" viewBox="0 0 51 51" fill="none" xmlns="http://www.w3.org/2000/svg">
<g id="stock-market">
<g id="Group">
<path id="Vector" d="M2.29688 20.5783C2.29688 11.9614 2.29688 7.65287 4.97111 4.96721C7.64535 2.28154 11.9653 2.29297 20.5822 2.29297H29.7249C38.3419 2.29297 42.6504 2.29297 45.3361 4.96721C48.0217 7.64144 48.0103 11.9614 48.0103 20.5783V29.721C48.0103 38.338 48.0103 42.6465 45.3361 45.3322C42.6618 48.0178 38.3419 48.0064 29.7249 48.0064H20.5822C11.9653 48.0064 7.65678 48.0064 4.97111 45.3322C2.28545 42.6579 2.29688 38.338 2.29688 29.721V20.5783Z" fill="black"/>
<path id="Vector_2" d="M36.2932 35.4321C36.2903 35.6585 36.199 35.8748 36.0389 36.0349C35.8788 36.195 35.6625 36.2862 35.4361 36.2892H14.8651C14.6387 36.2862 14.4224 36.195 14.2623 36.0349C14.1021 35.8748 14.0109 35.6585 14.0079 35.4321V14.861C14.0079 14.6337 14.0982 14.4157 14.259 14.255C14.4197 14.0942 14.6377 14.0039 14.8651 14.0039C15.0924 14.0039 15.3104 14.0942 15.4711 14.255C15.6319 14.4157 15.7222 14.6337 15.7222 14.861V34.575H35.4361C35.6625 34.5779 35.8788 34.6692 36.0389 34.8293C36.199 34.9894 36.2903 35.2057 36.2932 35.4321ZM19.4364 30.575C19.5763 30.5748 19.714 30.5403 19.8376 30.4745C19.9611 30.4088 20.0666 30.3138 20.145 30.1979L24.1449 24.2094L26.8306 26.8951C26.9193 26.9849 27.0267 27.054 27.1453 27.0975C27.2638 27.141 27.3905 27.1577 27.5163 27.1465C27.642 27.1325 27.7632 27.0916 27.8717 27.0265C27.9801 26.9614 28.0733 26.8737 28.1448 26.7694L32.7162 19.9124C32.8289 19.7244 32.8654 19.5004 32.8181 19.2864C32.7708 19.0724 32.6433 18.8847 32.4619 18.7618C32.2804 18.6388 32.0588 18.5901 31.8425 18.6256C31.6262 18.661 31.4318 18.778 31.299 18.9524L27.2991 24.9408L24.6135 22.2552C24.5247 22.1654 24.4173 22.0962 24.2987 22.0528C24.1802 22.0093 24.0535 21.9926 23.9278 22.0038C23.802 22.0177 23.6808 22.0587 23.5723 22.1238C23.4639 22.1888 23.3707 22.2765 23.2992 22.3809L18.7278 29.2379C18.6149 29.4221 18.5756 29.6422 18.618 29.8542C18.6604 30.0661 18.7813 30.2542 18.9564 30.3807C19.0922 30.4941 19.26 30.562 19.4364 30.575Z" fill="white"/>
</g>
</g>
</svg>
