<svg width="47" height="48" viewBox="0 0 47 48" fill="none" xmlns="http://www.w3.org/2000/svg">
<g clip-path="url(#clip0_61_444)">
<rect x="0.234375" y="0.671875" width="45.9732" height="46.7524" rx="9.35048" fill="white"/>
<path d="M34.6594 24.2986V27.1577C34.6594 27.2823 34.6348 27.4058 34.5871 27.521C34.5394 27.6361 34.4695 27.7408 34.3813 27.8289C34.2932 27.9171 34.1885 27.987 34.0734 28.0347C33.9582 28.0824 33.8347 28.107 33.7101 28.107H32.0322C31.74 29.4726 31.1993 30.7728 30.4371 31.943L31.6293 33.1296C31.8069 33.3087 31.9066 33.5507 31.9066 33.803C31.9066 34.0552 31.8069 34.2973 31.6293 34.4763L29.6092 36.4964C29.4301 36.6741 29.188 36.7738 28.9358 36.7738C28.6835 36.7738 28.4415 36.6741 28.2624 36.4964L27.0758 35.3043C25.9056 36.0665 24.6054 36.6072 23.2398 36.8994V38.5772C23.2398 38.7019 23.2153 38.8254 23.1675 38.9405C23.1198 39.0557 23.0499 39.1604 22.9618 39.2485C22.8736 39.3367 22.7689 39.4066 22.6538 39.4543C22.5386 39.502 22.4151 39.5266 22.2905 39.5266H19.4314C19.3068 39.5266 19.1833 39.502 19.0681 39.4543C18.9529 39.4066 18.8483 39.3367 18.7601 39.2485C18.672 39.1604 18.6021 39.0557 18.5543 38.9405C18.5066 38.8254 18.4821 38.7019 18.4821 38.5772V36.8994C17.1165 36.6072 15.8163 36.0665 14.6461 35.3043L13.4595 36.4964C13.2804 36.6741 13.0383 36.7738 12.7861 36.7738C12.5338 36.7738 12.2918 36.6741 12.1127 36.4964L10.0926 34.4763C9.91499 34.2973 9.8153 34.0552 9.8153 33.803C9.8153 33.5507 9.91499 33.3087 10.0926 33.1296L11.2848 31.943C10.5226 30.7728 9.98191 29.4726 9.68972 28.107H8.01183C7.88716 28.107 7.76371 28.0824 7.64853 28.0347C7.53335 27.987 7.4287 27.9171 7.34054 27.8289C7.25239 27.7408 7.18246 27.6361 7.13475 27.521C7.08705 27.4058 7.0625 27.2823 7.0625 27.1577V24.2986C7.06249 24.1739 7.08704 24.0505 7.13475 23.9353C7.18245 23.8201 7.25238 23.7155 7.34053 23.6273C7.42869 23.5392 7.53335 23.4692 7.64853 23.4215C7.76371 23.3738 7.88716 23.3493 8.01183 23.3493H9.68972C9.9819 21.9837 10.5226 20.6834 11.2848 19.5133L10.0926 18.3266C9.91499 18.1476 9.8153 17.9055 9.8153 17.6533C9.8153 17.401 9.91499 17.159 10.0926 16.9799L12.1127 14.9598C12.2918 14.7822 12.5338 14.6825 12.7861 14.6825C13.0383 14.6825 13.2804 14.7822 13.4595 14.9598L14.6461 16.152C15.8163 15.3898 17.1165 14.8491 18.4821 14.5569V12.879C18.4821 12.7544 18.5066 12.6309 18.5543 12.5157C18.602 12.4005 18.672 12.2959 18.7601 12.2077C18.8483 12.1196 18.9529 12.0496 19.0681 12.0019C19.1833 11.9542 19.3068 11.9297 19.4314 11.9297H22.2905C22.4151 11.9297 22.5386 11.9542 22.6538 12.0019C22.769 12.0496 22.8736 12.1196 22.9618 12.2077C23.0499 12.2959 23.1198 12.4005 23.1676 12.5157C23.2153 12.6309 23.2398 12.7544 23.2398 12.879V14.5569C24.6056 14.8485 25.9059 15.3893 27.0758 16.152L28.2624 14.9598C28.4415 14.7822 28.6835 14.6825 28.9358 14.6825C29.188 14.6825 29.4301 14.7822 29.6092 14.9598L31.6293 16.9799C31.8069 17.159 31.9066 17.401 31.9066 17.6533C31.9066 17.9055 31.8069 18.1476 31.6293 18.3266L30.4371 19.5133C31.1989 20.6837 31.7395 21.9838 32.0322 23.3493H33.7101C33.8347 23.3493 33.9582 23.3738 34.0734 23.4215C34.1885 23.4692 34.2932 23.5392 34.3814 23.6273C34.4695 23.7155 34.5394 23.8201 34.5871 23.9353C34.6349 24.0505 34.6594 24.1739 34.6594 24.2986Z" fill="#168FD6"/>
<path opacity="0.1" d="M20.8698 35.1189C20.3037 35.0635 19.2021 35.2718 19.242 34.4276C19.3908 33.6452 20.3186 34.0818 20.8617 34.015C21.0061 34.0169 21.1441 34.0754 21.2459 34.1778C21.3477 34.2803 21.4053 34.4185 21.4064 34.563C21.4075 34.7074 21.3519 34.8465 21.2515 34.9505C21.1512 35.0544 21.0142 35.1148 20.8698 35.1189ZM23.0107 34.8373C22.8782 34.8347 22.7511 34.7847 22.6523 34.6964C22.5536 34.608 22.4898 34.4872 22.4726 34.3558C22.4553 34.2245 22.4858 34.0913 22.5585 33.9805C22.6311 33.8696 22.7411 33.7886 22.8684 33.752C23.4097 33.6766 24.1977 33.0078 24.5458 33.7247C24.8195 34.5481 23.5585 34.6805 23.0107 34.8373ZM17.7015 34.4947C17.2601 34.3752 16.8395 34.1889 16.4543 33.9423C16.3915 33.9061 16.3364 33.8578 16.2923 33.8003C16.2481 33.7428 16.2157 33.6771 16.197 33.6071C16.1782 33.5371 16.1734 33.464 16.1829 33.3922C16.1924 33.3203 16.2159 33.251 16.2522 33.1882C16.6908 32.5204 17.3846 33.2886 17.9123 33.4323C18.0284 33.4827 18.1238 33.5713 18.1826 33.6834C18.2414 33.7955 18.26 33.9244 18.2354 34.0485C18.2107 34.1727 18.1443 34.2847 18.0472 34.3658C17.9501 34.447 17.8281 34.4925 17.7015 34.4947ZM25.9051 33.4059C25.7908 33.404 25.6799 33.3668 25.5875 33.2994C25.4951 33.232 25.4257 33.1378 25.3889 33.0295C25.352 32.9213 25.3495 32.8043 25.3816 32.6945C25.4137 32.5848 25.4789 32.4876 25.5683 32.4163C26.039 32.1405 26.5121 31.2188 27.1082 31.7493C27.1595 31.8005 27.2001 31.8614 27.2279 31.9283C27.2556 31.9953 27.2699 32.067 27.2699 32.1395C27.2699 32.212 27.2556 32.2838 27.2279 32.3507C27.2001 32.4177 27.1595 32.4785 27.1082 32.5298C26.7385 32.8349 26.399 33.3374 25.9051 33.4059ZM15.0152 32.7017C14.4888 32.6404 14.2069 32.0292 13.8627 31.675C13.7734 31.559 13.7338 31.4124 13.7525 31.2672C13.7712 31.122 13.8467 30.9902 13.9625 30.9006C14.624 30.45 14.9725 31.425 15.4048 31.759C15.4804 31.8368 15.5315 31.935 15.552 32.0415C15.5724 32.148 15.5612 32.2582 15.5198 32.3584C15.4783 32.4586 15.4085 32.5445 15.3188 32.6055C15.2291 32.6665 15.1236 32.7 15.0152 32.7017ZM28.0331 30.9783C27.9366 30.9772 27.8421 30.9509 27.7589 30.9022C27.6756 30.8535 27.6065 30.7839 27.5583 30.7003C27.5101 30.6167 27.4845 30.522 27.484 30.4256C27.4836 30.3291 27.5082 30.2341 27.5556 30.1501C27.8873 29.712 27.971 28.6846 28.7247 28.9454C28.7917 28.9732 28.8525 29.0138 28.9038 29.0651C28.9551 29.1164 28.9957 29.1773 29.0235 29.2443C29.0512 29.3113 29.0655 29.3831 29.0654 29.4556C29.0654 29.5281 29.0511 29.5999 29.0233 29.6669C28.7674 30.111 28.6436 30.9324 28.0331 30.9783ZM13.216 30.0218C12.5553 29.9771 12.5359 29.0774 12.333 28.5892C12.295 28.4478 12.3146 28.2972 12.3876 28.1703C12.4606 28.0434 12.5809 27.9506 12.7222 27.9124C13.5027 27.7514 13.4553 28.7831 13.7253 29.2572C13.7596 29.3411 13.7728 29.4322 13.7638 29.5224C13.7547 29.6126 13.7237 29.6992 13.6734 29.7746C13.6232 29.8501 13.5552 29.912 13.4755 29.9551C13.3957 29.9982 13.3066 30.0211 13.216 30.0218ZM29.0718 27.92C28.9933 27.9198 28.9158 27.903 28.8443 27.8706C28.7729 27.8383 28.7091 27.7911 28.6572 27.7322C28.6054 27.6733 28.5667 27.604 28.5436 27.529C28.5206 27.454 28.5138 27.375 28.5236 27.2971C28.6596 26.7665 28.3472 25.7752 29.1408 25.72C29.2151 25.7183 29.289 25.7319 29.3578 25.76C29.4266 25.7882 29.4888 25.8302 29.5406 25.8835C29.5925 25.9368 29.6327 26.0002 29.6589 26.0698C29.685 26.1394 29.6966 26.2136 29.6927 26.2879C29.6307 26.8343 29.8503 27.8672 29.0718 27.92ZM12.5832 26.8479C12.5111 26.8488 12.4396 26.8355 12.3728 26.8085C12.3059 26.7816 12.245 26.7417 12.1937 26.6912C12.1424 26.6406 12.1016 26.5803 12.0737 26.5139C12.0458 26.4474 12.0314 26.3761 12.0312 26.3041H12.5832L12.0312 26.3029C12.086 25.7336 11.8757 24.6397 12.7195 24.6759C12.8647 24.6945 12.9967 24.7699 13.0863 24.8856C13.176 25.0013 13.216 25.1479 13.1976 25.2931C13.0652 25.822 13.3734 26.7979 12.5832 26.8479ZM28.8524 24.6674C28.1829 24.6399 28.2623 23.7496 27.9921 23.3048C27.9357 23.1697 27.9352 23.0177 27.9908 22.8823C28.0464 22.7469 28.1535 22.639 28.2886 22.5825C29.0913 22.3182 29.1857 23.4446 29.3855 23.9704C29.4073 24.0523 29.4101 24.1381 29.3935 24.2212C29.377 24.3043 29.3416 24.3826 29.2902 24.4499C29.2387 24.5172 29.1724 24.5718 29.0966 24.6095C29.0207 24.6472 28.9371 24.667 28.8524 24.6674ZM13.2041 23.6872C13.1136 23.6864 13.0247 23.6636 12.9451 23.6206C12.8654 23.5777 12.7975 23.5159 12.7472 23.4407C12.6969 23.3655 12.6657 23.2791 12.6564 23.1891C12.647 23.0991 12.6599 23.0082 12.6937 22.9242C12.9588 22.429 13.193 21.3205 13.9571 21.6845C14.0839 21.7575 14.1766 21.8779 14.2147 22.0192C14.2528 22.1605 14.2332 22.3112 14.1603 22.4381C13.842 22.8357 13.8208 23.6603 13.2041 23.6872ZM27.4138 21.7775C26.8953 21.7394 26.6926 21.0906 26.3072 20.8063C26.2034 20.703 26.1448 20.5627 26.1444 20.4163C26.1441 20.2699 26.2018 20.1293 26.3051 20.0255C26.9467 19.4752 27.4623 20.4792 27.8493 20.8873C27.9112 20.9692 27.9491 21.0667 27.959 21.1689C27.9688 21.2711 27.9501 21.374 27.905 21.4662C27.8599 21.5584 27.7901 21.6363 27.7034 21.6913C27.6167 21.7462 27.5165 21.7761 27.4138 21.7775ZM14.9941 20.9992C14.8859 20.9975 14.7805 20.9642 14.6909 20.9034C14.6013 20.8426 14.5314 20.757 14.4899 20.657C14.4483 20.557 14.4368 20.4471 14.4569 20.3407C14.477 20.2343 14.5277 20.1361 14.6028 20.0581C15.0363 19.7005 15.6764 18.7668 16.243 19.3943C16.3323 19.5103 16.372 19.657 16.3532 19.8022C16.3344 19.9474 16.2587 20.0792 16.1427 20.1686C15.7413 20.3994 15.4748 20.9522 14.9941 20.9992ZM24.9786 19.656C24.5731 19.5112 24.1783 19.3381 23.7971 19.1378C23.6617 19.0822 23.554 18.9751 23.4976 18.84C23.4412 18.705 23.4407 18.553 23.4964 18.4176C23.8798 17.6631 24.7397 18.3944 25.254 18.6254C25.3572 18.6875 25.4373 18.7814 25.4824 18.8931C25.5275 19.0047 25.5351 19.128 25.504 19.2443C25.4729 19.3606 25.4049 19.4637 25.3101 19.5379C25.2153 19.6122 25.099 19.6536 24.9786 19.656ZM17.6724 19.1976C17.546 19.1954 17.4242 19.1501 17.3271 19.0691C17.23 18.9882 17.1635 18.8765 17.1386 18.7525C17.1138 18.6285 17.132 18.4998 17.1904 18.3877C17.2488 18.2755 17.3438 18.1867 17.4596 18.136C17.9978 17.971 18.9435 17.3552 19.2296 18.1508C19.2677 18.2922 19.2481 18.4428 19.1751 18.5697C19.1021 18.6966 18.9818 18.7894 18.8405 18.8276C18.4414 18.9072 18.0703 19.1328 17.6724 19.1976ZM21.9182 18.6276C21.3798 18.4915 20.3558 18.8129 20.2979 18.0089C20.3491 17.1639 21.4529 17.5162 21.9877 17.5283C22.1248 17.5485 22.2494 17.6195 22.3367 17.7272C22.4239 17.835 22.4675 17.9716 22.4587 18.1099C22.45 18.2483 22.3896 18.3783 22.2894 18.4742C22.1893 18.5701 22.0568 18.6248 21.9182 18.6276Z" fill="black"/>
<path d="M20.8698 34.5642C20.3037 34.5088 19.2021 34.7171 19.242 33.873C19.3908 33.0905 20.3186 33.5272 20.8617 33.4603C21.0061 33.4622 21.1441 33.5207 21.2459 33.6231C21.3477 33.7256 21.4053 33.8639 21.4064 34.0083C21.4075 34.1527 21.3519 34.2918 21.2515 34.3958C21.1512 34.4997 21.0142 34.5602 20.8698 34.5642ZM23.0107 34.2826C22.8782 34.28 22.7511 34.23 22.6523 34.1417C22.5536 34.0534 22.4898 33.9325 22.4726 33.8011C22.4553 33.6698 22.4858 33.5366 22.5585 33.4258C22.6311 33.315 22.7411 33.2339 22.8684 33.1973C23.4097 33.1219 24.1977 32.4531 24.5458 33.1701C24.8195 33.9934 23.5585 34.1258 23.0107 34.2826ZM17.7015 33.94C17.2601 33.8205 16.8395 33.6342 16.4543 33.3876C16.3915 33.3514 16.3364 33.3031 16.2923 33.2456C16.2481 33.1881 16.2157 33.1225 16.197 33.0524C16.1782 32.9824 16.1734 32.9093 16.1829 32.8375C16.1924 32.7656 16.2159 32.6963 16.2522 32.6335C16.6908 31.9657 17.3846 32.7339 17.9123 32.8776C18.0284 32.928 18.1238 33.0166 18.1826 33.1287C18.2414 33.2408 18.26 33.3697 18.2354 33.4938C18.2107 33.618 18.1443 33.73 18.0472 33.8112C17.9501 33.8923 17.8281 33.9378 17.7015 33.94ZM25.9051 32.8512C25.7908 32.8493 25.6799 32.8121 25.5875 32.7447C25.4951 32.6773 25.4257 32.5831 25.3889 32.4748C25.352 32.3666 25.3495 32.2496 25.3816 32.1399C25.4137 32.0301 25.4789 31.9329 25.5683 31.8616C26.039 31.5858 26.5121 30.6641 27.1082 31.1946C27.1595 31.2458 27.2001 31.3067 27.2279 31.3736C27.2556 31.4406 27.2699 31.5124 27.2699 31.5848C27.2699 31.6573 27.2556 31.7291 27.2279 31.796C27.2001 31.863 27.1595 31.9238 27.1082 31.9751C26.7385 32.2802 26.399 32.7827 25.9051 32.8512ZM15.0152 32.147C14.4888 32.0857 14.2069 31.4745 13.8627 31.1203C13.7734 31.0043 13.7338 30.8577 13.7525 30.7125C13.7712 30.5673 13.8467 30.4355 13.9625 30.3459C14.624 29.8954 14.9725 30.8703 15.4048 31.2043C15.4804 31.2821 15.5315 31.3803 15.552 31.4868C15.5724 31.5933 15.5612 31.7035 15.5197 31.8037C15.4783 31.9039 15.4085 31.9898 15.3188 32.0508C15.2291 32.1119 15.1236 32.1453 15.0152 32.147ZM28.0331 30.4236C27.9366 30.4225 27.8421 30.3963 27.7589 30.3475C27.6756 30.2988 27.6065 30.2292 27.5583 30.1456C27.5101 30.062 27.4845 29.9673 27.484 29.8709C27.4836 29.7744 27.5082 29.6795 27.5556 29.5954C27.8873 29.1573 27.971 28.13 28.7246 28.3907C28.7916 28.4185 28.8525 28.4591 28.9038 28.5104C28.9551 28.5617 28.9957 28.6226 29.0235 28.6896C29.0512 28.7566 29.0655 28.8284 29.0654 28.9009C29.0654 28.9734 29.051 29.0452 29.0232 29.1122C28.7674 29.5563 28.6436 30.3777 28.0331 30.4236ZM13.216 29.4671C12.5553 29.4225 12.5359 28.5227 12.333 28.0345C12.295 27.8932 12.3146 27.7425 12.3876 27.6156C12.4606 27.4887 12.5809 27.3959 12.7222 27.3577C13.5027 27.1968 13.4553 28.2284 13.7253 28.7025C13.7596 28.7865 13.7728 28.8775 13.7638 28.9677C13.7547 29.0579 13.7237 29.1445 13.6734 29.2199C13.6232 29.2954 13.5552 29.3574 13.4755 29.4004C13.3957 29.4435 13.3066 29.4664 13.216 29.4671ZM29.0718 27.3653C28.9933 27.3651 28.9158 27.3483 28.8443 27.316C28.7728 27.2836 28.7091 27.2364 28.6572 27.1775C28.6054 27.1186 28.5667 27.0493 28.5436 26.9743C28.5206 26.8993 28.5138 26.8203 28.5236 26.7425C28.6596 26.2118 28.3472 25.2205 29.1408 25.1653C29.2151 25.1636 29.2889 25.1772 29.3578 25.2053C29.4266 25.2335 29.4888 25.2755 29.5406 25.3288C29.5925 25.3821 29.6327 25.4456 29.6589 25.5151C29.685 25.5847 29.6966 25.659 29.6927 25.7332C29.6307 26.2796 29.8503 27.3125 29.0718 27.3653ZM12.5832 26.2932C12.5111 26.2941 12.4396 26.2808 12.3728 26.2539C12.3059 26.227 12.245 26.1871 12.1937 26.1365C12.1424 26.0859 12.1016 26.0256 12.0737 25.9592C12.0458 25.8927 12.0314 25.8214 12.0312 25.7494H12.5832L12.0312 25.7483C12.086 25.1789 11.8757 24.085 12.7195 24.1213C12.8647 24.1398 12.9967 24.2152 13.0863 24.3309C13.176 24.4466 13.216 24.5932 13.1976 24.7384C13.0652 25.2673 13.3734 26.2432 12.5832 26.2932ZM28.8524 24.1127C28.1829 24.0852 28.2623 23.1949 27.9921 22.7501C27.9357 22.615 27.9352 22.4631 27.9908 22.3276C28.0464 22.1922 28.1535 22.0843 28.2886 22.0278C29.0913 21.7635 29.1857 22.8899 29.3855 23.4157C29.4073 23.4976 29.4101 23.5834 29.3935 23.6665C29.377 23.7497 29.3416 23.8279 29.2902 23.8952C29.2387 23.9625 29.1724 24.0171 29.0966 24.0548C29.0207 24.0925 28.9371 24.1123 28.8524 24.1127ZM13.2041 23.1325C13.1136 23.1318 13.0247 23.1089 12.9451 23.0659C12.8654 23.023 12.7975 22.9612 12.7472 22.886C12.6969 22.8108 12.6657 22.7244 12.6564 22.6344C12.647 22.5444 12.6599 22.4535 12.6937 22.3695C12.9588 21.8743 13.193 20.7658 13.9571 21.1298C14.0839 21.2028 14.1766 21.3232 14.2147 21.4645C14.2528 21.6058 14.2332 21.7565 14.1603 21.8834C13.842 22.2811 13.8208 23.1056 13.2041 23.1325ZM27.4138 21.2228C26.8953 21.1847 26.6926 20.5359 26.3072 20.2516C26.2034 20.1483 26.1448 20.008 26.1444 19.8616C26.1441 19.7152 26.2018 19.5746 26.3051 19.4708C26.9467 18.9205 27.4623 19.9245 27.8493 20.3326C27.9112 20.4145 27.9491 20.512 27.959 20.6142C27.9688 20.7164 27.9501 20.8193 27.905 20.9115C27.8599 21.0037 27.7901 21.0816 27.7034 21.1366C27.6167 21.1915 27.5165 21.2214 27.4138 21.2228ZM14.9941 20.4445C14.8859 20.4428 14.7805 20.4095 14.6909 20.3487C14.6013 20.2879 14.5314 20.2023 14.4899 20.1023C14.4483 20.0023 14.4368 19.8924 14.4569 19.786C14.477 19.6796 14.5277 19.5814 14.6028 19.5034C15.0363 19.1458 15.6764 18.2121 16.243 18.8396C16.3323 18.9556 16.372 19.1023 16.3532 19.2475C16.3344 19.3927 16.2587 19.5245 16.1427 19.6139C15.7413 19.8447 15.4748 20.3975 14.9941 20.4445ZM24.9786 19.1013C24.5731 18.9565 24.1783 18.7834 23.7971 18.5831C23.6617 18.5275 23.554 18.4204 23.4976 18.2853C23.4412 18.1503 23.4407 17.9983 23.4964 17.863C23.8798 17.1084 24.7397 17.8397 25.254 18.0707C25.3572 18.1328 25.4373 18.2268 25.4824 18.3384C25.5275 18.45 25.5351 18.5733 25.504 18.6896C25.4729 18.8059 25.4049 18.909 25.3101 18.9833C25.2153 19.0575 25.099 19.099 24.9786 19.1013ZM17.6724 18.6429C17.546 18.6407 17.4242 18.5954 17.3271 18.5145C17.23 18.4335 17.1635 18.3218 17.1386 18.1978C17.1138 18.0739 17.132 17.9451 17.1904 17.833C17.2488 17.7209 17.3438 17.6321 17.4596 17.5813C17.9978 17.4163 18.9435 16.8005 19.2296 17.5961C19.2677 17.7375 19.2481 17.8882 19.1751 18.015C19.1021 18.1419 18.9818 18.2347 18.8405 18.2729C18.4414 18.3525 18.0703 18.5782 17.6724 18.6429ZM21.9182 18.0729C21.3798 17.9368 20.3558 18.2583 20.2979 17.4542C20.3491 16.6093 21.4529 16.9615 21.9877 16.9736C22.1248 16.9938 22.2494 17.0648 22.3367 17.1725C22.4239 17.2803 22.4675 17.4169 22.4587 17.5552C22.45 17.6936 22.3896 17.8236 22.2894 17.9195C22.1893 18.0154 22.0568 18.0702 21.9182 18.0729Z" fill="#CCDDE7"/>
<path opacity="0.1" d="M31.6322 18.3278L30.44 19.5144C30.7201 19.946 30.9709 20.3959 31.1906 20.8611L30.887 21.1647C30.6797 21.3715 30.3989 21.4876 30.1061 21.4876C29.8132 21.4876 29.5324 21.3715 29.3251 21.1647L28.5413 20.3865L20.4113 28.5165V30.0785L17.6792 31.2486L16.1172 29.6866L17.2873 26.9545H18.8493L26.9848 18.8245L26.2011 18.0407C26.0987 17.9386 26.0175 17.8173 25.9621 17.6838C25.9067 17.5502 25.8782 17.4071 25.8782 17.2625C25.8782 17.1179 25.9067 16.9748 25.9621 16.8412C26.0175 16.7077 26.0987 16.5864 26.2011 16.4843L26.742 15.9434C26.8579 16.0096 26.9683 16.0814 27.0787 16.1531L28.2653 14.9609C28.4444 14.7833 28.6865 14.6836 28.9387 14.6836C29.191 14.6836 29.433 14.7833 29.6121 14.9609L31.6322 16.981C31.8098 17.1601 31.9095 17.4021 31.9095 17.6544C31.9095 17.9066 31.8098 18.1487 31.6322 18.3278Z" fill="black"/>
<path d="M20.4102 27.7442L29.7771 18.3778L28.2157 16.8164L18.8493 26.1833H17.2878L16.1172 28.9154L17.6781 30.4763L20.4102 29.3057V27.7442Z" fill="white"/>
<path d="M38.7465 10.9614L35.6243 7.83915C35.1932 7.40806 34.4943 7.40806 34.0632 7.83915L26.194 15.7083C25.7629 16.1394 25.7629 16.8384 26.194 17.2695L29.3162 20.3917C29.7473 20.8228 30.4463 20.8228 30.8773 20.3917L38.7465 12.5225C39.1776 12.0914 39.1776 11.3925 38.7465 10.9614Z" fill="#044388"/>
<path d="M29.6952 17.4504C29.5868 17.4486 29.4813 17.4153 29.3917 17.3543C29.302 17.2934 29.2322 17.2076 29.1907 17.1074C29.1493 17.0073 29.138 16.8972 29.1583 16.7908C29.1786 16.6843 29.2295 16.5861 29.3049 16.5082L35.159 10.6538C35.2625 10.5503 35.4029 10.4922 35.5493 10.4922C35.6956 10.4922 35.836 10.5503 35.9395 10.6538C36.043 10.7573 36.1011 10.8977 36.1011 11.0441C36.1011 11.1904 36.043 11.3308 35.9395 11.4343L30.0854 17.2887C30.0342 17.34 29.9734 17.3807 29.9064 17.4085C29.8394 17.4362 29.7677 17.4505 29.6952 17.4504Z" fill="white"/>
</g>
<defs>
<clipPath id="clip0_61_444">
<rect x="0.234375" y="0.671875" width="45.9732" height="46.7524" rx="9.35048" fill="white"/>
</clipPath>
</defs>
</svg>
