<svg width="27" height="27" viewBox="0 0 27 27" fill="none" xmlns="http://www.w3.org/2000/svg">
<g filter="url(#filter0_ii_1163_1163)">
<rect x="0.59375" y="0.309937" width="25.7877" height="25.7877" rx="12.8938" fill="url(#paint0_linear_1163_1163)"/>
<rect x="1.23844" y="0.954628" width="24.4983" height="24.4983" rx="12.2491" stroke="white" stroke-width="1.28938"/>
<path d="M14.5541 13.3079C14.6393 12.9882 15.0531 12.6683 15.2948 12.3914C16.4517 11.2885 16.2731 10.5685 14.8437 9.90492C13.3503 9.1084 9.58886 10.0407 11.394 12.1675C11.7244 12.5538 12.1095 12.8356 12.4052 13.2242C12.4458 13.3952 12.2534 13.5376 12.1388 13.6794C11.8151 14.0092 11.4363 14.3212 11.2319 14.7578C10.9397 15.333 11.117 16.044 11.7156 16.3288C12.1177 16.541 12.6052 16.5387 13.0335 16.5532C13.4873 16.5672 13.8524 16.6509 14.3017 16.6186C15.4529 16.6527 16.4419 15.6 15.6662 14.5282C15.4188 14.198 15.0949 13.9655 14.8131 13.7053C14.7044 13.5975 14.5609 13.4733 14.5466 13.3411C14.5455 13.3331 14.5511 13.3142 14.5541 13.3079ZM13.9384 13.1265C13.7464 13.9164 14.6817 14.2938 15.1022 14.7798C15.5346 15.1628 15.3651 15.8128 14.8295 15.963C14.0747 16.1938 13.2207 15.99 12.4472 15.9921C11.5275 15.9132 11.4311 15.3044 12.0848 14.7402C13.8309 13.4075 13.4701 12.9857 12.0949 11.5791C11.9732 11.4064 11.7477 11.1913 11.8993 10.9973C12.8946 10.2963 14.4085 10.2917 15.3276 11.131C15.0831 11.9145 14.1499 12.2445 13.955 13.0724L13.9384 13.1265Z" fill="white"/>
<path d="M20.6172 10.2017C19.5651 7.51485 16.759 5.80399 13.9089 5.87874C13.8441 5.74843 13.7169 5.64933 13.5239 5.64061C10.5825 5.46917 8.11092 7.53407 6.70898 9.9646C6.53467 9.84189 6.42599 9.60976 6.41168 9.17204C6.39468 8.81775 6.42902 8.4567 6.50763 8.11011C6.58717 7.78419 6.07148 7.66574 6.00214 7.99543C5.80162 8.89414 5.56535 10.1991 6.51001 10.7821C6.8125 10.9661 7.19272 11.0199 7.51409 11.0143C7.88389 11.026 9.3358 10.7807 8.62893 10.2465C8.18342 10.0685 7.73726 10.1011 7.36301 10.1C7.45754 9.9016 7.5652 9.70917 7.68278 9.52314C8.57043 8.15386 9.95482 7.06091 11.5454 6.66228C12.1851 6.50187 12.8445 6.47678 13.4853 6.56821C13.6981 6.57656 13.8409 6.46717 13.9105 6.321C16.5 6.39965 19.0123 8.006 19.8619 10.4982C20.1704 11.3405 20.3073 12.2401 20.2969 13.1369C20.2946 13.3985 20.5124 13.6116 20.774 13.6033C21.776 13.604 20.8401 10.7479 20.6172 10.2017Z" fill="white"/>
<path d="M21.1952 16.6466C20.855 15.1976 19.5436 15.4022 18.453 15.8098C18.2289 15.8732 18.1867 16.2057 18.3957 16.3193C18.5917 16.4321 18.8155 16.4637 19.0279 16.4739C19.2445 16.5059 19.4887 16.4533 19.7223 16.4217C19.4534 16.918 19.1194 17.3817 18.7379 17.8021C18.3953 18.1821 17.9977 18.5302 17.5836 18.8317C16.3383 19.7266 14.7952 20.2356 13.2604 20.1509C11.0776 19.8654 8.90573 18.8041 7.66688 16.9453C7.18389 16.2223 6.87179 15.3946 6.74293 14.5367C6.67745 14.1085 6.66027 13.6729 6.68078 13.2384C6.69475 12.976 6.4841 12.7528 6.22134 12.7515C5.96529 12.7495 5.75612 12.9555 5.75414 13.2115C5.74663 14.1958 5.91993 15.1904 6.30502 16.0993C7.44705 18.8595 10.3483 20.4759 13.2175 20.7713C14.8975 20.8418 16.5586 20.2627 17.9099 19.2861C18.3555 18.9646 18.784 18.5956 19.1615 18.1967C19.6385 17.6968 20.0568 17.1401 20.4096 16.5398C20.4306 16.5587 20.4508 16.5796 20.47 16.6033C20.7031 16.9415 20.5961 17.4086 20.5224 17.7916C20.4864 17.9729 20.4441 18.1595 20.4176 18.3684C20.3712 18.6887 20.8743 18.7692 20.9266 18.4464C21.0265 17.8371 21.313 17.2927 21.1952 16.6466Z" fill="white"/>
</g>
<defs>
<filter id="filter0_ii_1163_1163" x="-1.40625" y="-1.69006" width="29.7891" height="29.7877" filterUnits="userSpaceOnUse" color-interpolation-filters="sRGB">
<feFlood flood-opacity="0" result="BackgroundImageFix"/>
<feBlend mode="normal" in="SourceGraphic" in2="BackgroundImageFix" result="shape"/>
<feColorMatrix in="SourceAlpha" type="matrix" values="0 0 0 0 0 0 0 0 0 0 0 0 0 0 0 0 0 0 127 0" result="hardAlpha"/>
<feOffset dx="2" dy="4"/>
<feGaussianBlur stdDeviation="1"/>
<feComposite in2="hardAlpha" operator="arithmetic" k2="-1" k3="1"/>
<feColorMatrix type="matrix" values="0 0 0 0 1 0 0 0 0 1 0 0 0 0 1 0 0 0 0.25 0"/>
<feBlend mode="normal" in2="shape" result="effect1_innerShadow_1163_1163"/>
<feColorMatrix in="SourceAlpha" type="matrix" values="0 0 0 0 0 0 0 0 0 0 0 0 0 0 0 0 0 0 127 0" result="hardAlpha"/>
<feOffset dx="-2" dy="-2"/>
<feGaussianBlur stdDeviation="2"/>
<feComposite in2="hardAlpha" operator="arithmetic" k2="-1" k3="1"/>
<feColorMatrix type="matrix" values="0 0 0 0 0.0534421 0 0 0 0 0.310833 0 0 0 0 0.0411854 0 0 0 1 0"/>
<feBlend mode="normal" in2="effect1_innerShadow_1163_1163" result="effect2_innerShadow_1163_1163"/>
</filter>
<linearGradient id="paint0_linear_1163_1163" x1="13.4876" y1="0.309937" x2="69.9375" y2="77.2911" gradientUnits="userSpaceOnUse">
<stop stop-color="#49D043"/>
<stop offset="0.99" stop-color="#49D043"/>
</linearGradient>
</defs>
</svg>
