<svg xmlns="http://www.w3.org/2000/svg" width="15" height="15" viewBox="0 0 15 15" fill="none">
  <g clip-path="url(#clip0_1163_726)">
    <path d="M3.08855 3.50377L0.639176 5.95314C0.241441 6.36993 0.0195312 6.92391 0.0195312 7.50002C0.0195312 8.07613 0.241441 8.63011 0.639176 9.0469L3.08855 11.4963C3.17503 11.5858 3.27848 11.6572 3.39286 11.7064C3.50724 11.7555 3.63026 11.7814 3.75474 11.7824C3.87922 11.7835 4.00267 11.7598 4.11788 11.7127C4.2331 11.6655 4.33777 11.5959 4.4258 11.5079C4.51382 11.4199 4.58343 11.3152 4.63057 11.2C4.67771 11.0848 4.70143 10.9613 4.70035 10.8368C4.69927 10.7124 4.6734 10.5893 4.62427 10.475C4.57514 10.3606 4.50372 10.2571 4.41418 10.1706L2.6773 8.43252L14.0836 8.41815C14.3322 8.41815 14.5706 8.31937 14.7465 8.14356C14.9223 7.96774 15.0211 7.72929 15.0211 7.48065C15.0211 7.232 14.9223 6.99355 14.7465 6.81773C14.5706 6.64192 14.3322 6.54314 14.0836 6.54314L2.68668 6.55752L4.41418 4.82939C4.58495 4.65258 4.67944 4.41576 4.67731 4.16995C4.67517 3.92415 4.57658 3.68901 4.40276 3.51519C4.22894 3.34137 3.9938 3.24277 3.74799 3.24064C3.50218 3.2385 3.26537 3.33299 3.08855 3.50377Z" fill="#565855"/>
  </g>
  <defs>
    <clipPath id="clip0_1163_726">
      <rect width="15" height="15" fill="white"/>
    </clipPath>
  </defs>
</svg>