<svg xmlns="http://www.w3.org/2000/svg" width="29" height="30" viewBox="0 0 29 30" fill="none">
  <path fill-rule="evenodd" clip-rule="evenodd" d="M24.7717 15.4494C24.9379 15.2829 25.0313 15.0574 25.0313 14.8222C25.0313 14.587 24.9379 14.3614 24.7717 14.195L17.6717 7.095C17.5904 7.0078 17.4925 6.93786 17.3836 6.88935C17.2747 6.84085 17.1572 6.81477 17.038 6.81266C16.9189 6.81056 16.8005 6.83248 16.69 6.87712C16.5795 6.92175 16.4791 6.98819 16.3948 7.07247C16.3105 7.15674 16.2441 7.25713 16.1995 7.36764C16.1548 7.47815 16.1329 7.59652 16.135 7.71568C16.1371 7.83485 16.1632 7.95237 16.2117 8.06124C16.2602 8.1701 16.3302 8.26808 16.4173 8.34933L22.0027 13.9347L5.21116 13.9347C4.97578 13.9347 4.75004 14.0282 4.5836 14.1946C4.41716 14.3611 4.32366 14.5868 4.32366 14.8222C4.32366 15.0576 4.41716 15.2833 4.5836 15.4497C4.75004 15.6162 4.97578 15.7097 5.21116 15.7097L22.0027 15.7097L16.4173 21.295C16.3302 21.3763 16.2602 21.4743 16.2117 21.5831C16.1632 21.692 16.1371 21.8095 16.135 21.9287C16.1329 22.0479 16.1548 22.1662 16.1995 22.2767C16.2441 22.3872 16.3105 22.4876 16.3948 22.5719C16.4791 22.6562 16.5795 22.7226 16.69 22.7673C16.8005 22.8119 16.9189 22.8338 17.038 22.8317C17.1572 22.8296 17.2747 22.8035 17.3836 22.755C17.4925 22.7065 17.5904 22.6366 17.6717 22.5494L24.7717 15.4494Z" fill="white" fill-opacity="0.4"/>
</svg>