<svg xmlns="http://www.w3.org/2000/svg" width="15" height="16" viewBox="0 0 15 16" fill="none">
  <g clip-path="url(#clip0_1163_716)">
    <path d="M14.9375 7.87096C14.692 5.98098 13.7362 4.25536 12.2642 3.04471C10.7923 1.83406 8.91462 1.2292 7.01279 1.35301C5.11095 1.47683 3.32758 2.32004 2.02503 3.71133C0.722474 5.10261 -0.00155703 6.9376 4.23134e-05 8.84346C-0.00340352 9.86075 0.203648 10.8677 0.608179 11.8011C1.01271 12.7345 1.60597 13.5742 2.35067 14.2672C2.95846 14.8282 3.75802 15.135 4.58504 15.1247H10.4113C11.2818 15.127 12.1184 14.7877 12.7413 14.1797C13.5753 13.3732 14.2085 12.3823 14.5899 11.2866C14.9714 10.1909 15.0904 9.02103 14.9375 7.87096ZM11.4332 12.836C11.1598 13.1023 10.7929 13.2508 10.4113 13.2497H4.58504C4.2359 13.2571 3.89676 13.1328 3.63504 12.9016C3.07769 12.3831 2.63362 11.7549 2.33073 11.0565C2.02785 10.3582 1.8727 9.60469 1.87504 8.84346C1.87951 7.35717 2.47355 5.93337 3.52674 4.88463C4.57994 3.83588 6.00624 3.24789 7.49254 3.24971C7.7139 3.24983 7.93508 3.26235 8.15504 3.28721C9.39366 3.43203 10.5491 3.98398 11.4402 4.85646C12.3312 5.72893 12.9073 6.87254 13.0782 8.10784C13.1926 8.96962 13.1035 9.84623 12.8179 10.6673C12.5323 11.4884 12.0583 12.2312 11.4338 12.836H11.4332ZM5.65817 10.4278C5.82641 10.6109 5.91504 10.8533 5.90455 11.1018C5.89406 11.3502 5.78531 11.5843 5.60223 11.7525C5.41915 11.9208 5.17673 12.0094 4.9283 11.9989C4.67987 11.9884 4.44579 11.8797 4.27754 11.6966C3.53555 10.8913 3.12407 9.83601 3.12504 8.74096C3.1318 7.66314 3.54675 6.62792 4.2863 5.84383C5.02586 5.05974 6.03508 4.58503 7.11067 4.51534C7.35856 4.49495 7.6044 4.57387 7.79411 4.73474C7.98381 4.89561 8.10184 5.12526 8.12223 5.37315C8.14262 5.62105 8.0637 5.86689 7.90282 6.05659C7.74195 6.2463 7.51231 6.36432 7.26442 6.38471C6.65661 6.41152 6.08241 6.67116 5.66084 7.10983C5.23928 7.54851 5.00266 8.13257 5.00004 8.74096C4.99965 9.36598 5.23461 9.96823 5.65817 10.4278ZM11.8382 9.30784C11.7233 10.2008 11.3334 11.0358 10.7225 11.6972C10.5541 11.8803 10.3199 11.989 10.0713 11.9994C9.8228 12.0097 9.58031 11.9209 9.39723 11.7525C9.21415 11.5841 9.10547 11.3499 9.09509 11.1013C9.08472 10.8528 9.1735 10.6103 9.34192 10.4272C9.69059 10.0509 9.91341 9.57534 9.97942 9.06659C10.0173 8.8252 10.1479 8.60814 10.3434 8.46162C10.5389 8.31511 10.784 8.25071 11.0263 8.28216C11.2686 8.31361 11.489 8.43842 11.6407 8.62999C11.7923 8.82157 11.8632 9.06479 11.8382 9.30784ZM8.74129 8.95909C8.72627 9.1992 8.64227 9.42987 8.49939 9.62342C8.35651 9.81697 8.16081 9.96518 7.93577 10.0503C7.71074 10.1353 7.46594 10.1537 7.23075 10.103C6.99555 10.0524 6.77996 9.93502 6.60985 9.76491C6.43973 9.59479 6.32233 9.3792 6.27171 9.14401C6.2211 8.90882 6.23943 8.66401 6.3245 8.43898C6.40958 8.21395 6.55779 8.01825 6.75134 7.87537C6.94489 7.73248 7.17556 7.64849 7.41567 7.63346L9.02442 6.02409C9.20029 5.84822 9.43882 5.74941 9.68754 5.74941C9.93626 5.74941 10.1748 5.84822 10.3507 6.02409C10.5265 6.19996 10.6253 6.43849 10.6253 6.68721C10.6253 6.93593 10.5265 7.17447 10.3507 7.35034L8.74129 8.95909Z" fill="white" fill-opacity="0.5"/>
  </g>
  <defs>
    <clipPath id="clip0_1163_716">
      <rect width="15" height="15" fill="white" transform="translate(0 0.749512)"/>
    </clipPath>
  </defs>
</svg>