<svg xmlns="http://www.w3.org/2000/svg" width="15" height="16" viewBox="0 0 15 16" fill="none">
  <path d="M14.4212 3.15061C14.2499 3.07959 14.0614 3.06099 13.8795 3.09715C13.6976 3.1333 13.5305 3.2226 13.3994 3.35373L11.08 5.67373L8.16313 2.75686C8.07606 2.66974 7.97269 2.60063 7.8589 2.55348C7.74512 2.50632 7.62316 2.48206 7.5 2.48206C7.37684 2.48206 7.25488 2.50632 7.1411 2.55348C7.02731 2.60063 6.92394 2.66974 6.83687 2.75686L3.92 5.67373L1.60063 3.35373C1.46951 3.22253 1.30243 3.13318 1.12051 3.09697C0.938601 3.06076 0.750035 3.07933 0.578677 3.15032C0.407319 3.22131 0.26087 3.34154 0.157862 3.49579C0.0548539 3.65004 -8.39788e-05 3.83137 9.63551e-08 4.01686V11.0619C0.00115776 11.9732 0.363694 12.8469 1.0081 13.4913C1.6525 14.1357 2.52617 14.4982 3.4375 14.4994H11.5625C12.4738 14.4982 13.3475 14.1357 13.9919 13.4913C14.6363 12.8469 14.9988 11.9732 15 11.0619V4.01686C15 3.83141 14.945 3.65013 14.842 3.49594C14.739 3.34175 14.5926 3.22157 14.4212 3.15061ZM13.125 11.0619C13.125 11.4763 12.9604 11.8737 12.6674 12.1667C12.3743 12.4597 11.9769 12.6244 11.5625 12.6244H3.4375C3.0231 12.6244 2.62567 12.4597 2.33265 12.1667C2.03962 11.8737 1.875 11.4763 1.875 11.0619V6.27998L3.2575 7.66248C3.43331 7.83823 3.67172 7.93697 3.92031 7.93697C4.1689 7.93697 4.40732 7.83823 4.58313 7.66248L7.5 4.74561L10.4169 7.66248C10.5927 7.83823 10.8311 7.93697 11.0797 7.93697C11.3283 7.93697 11.5667 7.83823 11.7425 7.66248L13.125 6.27998V11.0619Z" fill="white" fill-opacity="0.5"/>
</svg>