<svg xmlns="http://www.w3.org/2000/svg" width="25" height="23" viewBox="0 0 25 23" fill="none">
  <path d="M22.6408 18.2089C23.1347 18.2091 23.6095 18.3993 23.967 18.7402C24.3244 19.081 24.537 19.5462 24.5607 20.0395C24.5845 20.5328 24.4175 21.0163 24.0945 21.3899C23.7714 21.7634 23.317 21.9984 22.8255 22.046L22.6408 22.055H2.12814C1.63428 22.0547 1.15944 21.8645 0.802015 21.5237C0.444591 21.1829 0.231986 20.7176 0.208252 20.2243C0.184519 19.731 0.351477 19.2475 0.674531 18.874C0.997585 18.5004 1.45197 18.2655 1.94353 18.2178L2.12814 18.2089H22.6408ZM22.6408 9.23456C23.1509 9.23456 23.64 9.43717 24.0007 9.79781C24.3613 10.1585 24.5639 10.6476 24.5639 11.1576C24.5639 11.6677 24.3613 12.1568 24.0007 12.5174C23.64 12.8781 23.1509 13.0807 22.6408 13.0807H2.12814C1.61811 13.0807 1.12898 12.8781 0.768331 12.5174C0.407686 12.1568 0.205078 11.6677 0.205078 11.1576C0.205078 10.6476 0.407686 10.1585 0.768331 9.79781C1.12898 9.43717 1.61811 9.23456 2.12814 9.23456H22.6408ZM22.6408 0.260254C23.1509 0.260254 23.64 0.462862 24.0007 0.823507C24.3613 1.18415 24.5639 1.67329 24.5639 2.18332C24.5639 2.69335 24.3613 3.18249 24.0007 3.54313C23.64 3.90378 23.1509 4.10638 22.6408 4.10638H2.12814C1.61811 4.10638 1.12898 3.90378 0.768331 3.54313C0.407686 3.18249 0.205078 2.69335 0.205078 2.18332C0.205078 1.67329 0.407686 1.18415 0.768331 0.823507C1.12898 0.462862 1.61811 0.260254 2.12814 0.260254H22.6408Z" fill="white"/>
</svg>