<svg xmlns="http://www.w3.org/2000/svg" width="17" height="16" viewBox="0 0 17 16" fill="none">
  <g clip-path="url(#clip0_1163_794)">
    <path d="M8.45866 0.00476074C6.93172 0.00476074 5.43906 0.457553 4.16945 1.30588C2.89984 2.15421 1.9103 3.35996 1.32596 4.77068C0.741626 6.18139 0.588737 7.73371 0.88663 9.23131C1.18452 10.7289 1.91982 12.1046 2.99953 13.1843C4.07925 14.264 5.45489 14.9993 6.95249 15.2972C8.4501 15.5951 10.0024 15.4422 11.4131 14.8578C12.8238 14.2735 14.0296 13.284 14.8779 12.0144C15.7263 10.7447 16.179 9.25209 16.179 7.72514C16.1768 5.67825 15.3627 3.71583 13.9154 2.26845C12.468 0.82108 10.5056 0.00697461 8.45866 0.00476074V0.00476074ZM8.45866 13.5154C7.31345 13.5154 6.19396 13.1758 5.24175 12.5396C4.28955 11.9033 3.54739 10.999 3.10914 9.94099C2.67089 8.88295 2.55622 7.71872 2.77964 6.59551C3.00306 5.47231 3.55453 4.44058 4.36431 3.63079C5.1741 2.82101 6.20583 2.26953 7.32904 2.04611C8.45224 1.8227 9.61647 1.93736 10.6745 2.37561C11.7325 2.81387 12.6369 3.55602 13.2731 4.50823C13.9094 5.46044 14.2489 6.57993 14.2489 7.72514C14.2471 9.26025 13.6364 10.7319 12.5509 11.8174C11.4655 12.9029 9.99377 13.5136 8.45866 13.5154Z" fill="white"/>
    <path d="M8.16527 6.14594H7.97226C7.7194 6.13973 7.47335 6.22819 7.28232 6.39398C7.0913 6.55977 6.96909 6.79093 6.93966 7.04214C6.92283 7.29346 7.00492 7.54139 7.1684 7.73301C7.33189 7.92462 7.56381 8.04472 7.81464 8.06767V11.0593C7.81464 11.3153 7.91631 11.5607 8.09729 11.7417C8.27828 11.9227 8.52374 12.0244 8.77969 12.0244C9.03564 12.0244 9.2811 11.9227 9.46208 11.7417C9.64306 11.5607 9.74474 11.3153 9.74474 11.0593V7.7254C9.74474 7.3065 9.57833 6.90476 9.28212 6.60855C8.98592 6.31234 8.58417 6.14594 8.16527 6.14594Z" fill="white"/>
    <path d="M8.35011 5.4518C8.56847 5.4518 8.78192 5.38705 8.96347 5.26574C9.14503 5.14443 9.28653 4.97201 9.37009 4.77028C9.45365 4.56855 9.47552 4.34656 9.43292 4.13241C9.39032 3.91825 9.28517 3.72153 9.13077 3.56713C8.97637 3.41273 8.77965 3.30759 8.5655 3.26499C8.35134 3.22239 8.12936 3.24425 7.92762 3.32781C7.72589 3.41137 7.55347 3.55288 7.43215 3.73443C7.31084 3.91599 7.24609 4.12944 7.24609 4.34779C7.24601 4.49279 7.27451 4.63639 7.32996 4.77038C7.38541 4.90436 7.46673 5.0261 7.56927 5.12863C7.6718 5.23117 7.79354 5.31249 7.92752 5.36794C8.06151 5.42339 8.20511 5.45189 8.35011 5.4518Z" fill="white"/>
  </g>
  <defs>
    <clipPath id="clip0_1163_794">
      <rect width="15.4408" height="15.4408" fill="white" transform="translate(0.738281 0.00476074)"/>
    </clipPath>
  </defs>
</svg>