<svg xmlns="http://www.w3.org/2000/svg" width="13" height="13" viewBox="0 0 13 13" fill="none">
  <g clip-path="url(#clip0_1163_736)">
    <path d="M4.25 11H1.9545C1.9003 10.9999 1.84837 10.9783 1.81004 10.94C1.77172 10.9016 1.75013 10.8497 1.75 10.7955V2.2045C1.75013 2.1503 1.77172 2.09837 1.81004 2.06004C1.84837 2.02172 1.9003 2.00013 1.9545 2H4.25C4.44891 2 4.63968 1.92098 4.78033 1.78033C4.92098 1.63968 5 1.44891 5 1.25C5 1.05109 4.92098 0.860322 4.78033 0.71967C4.63968 0.579018 4.44891 0.5 4.25 0.5H1.9545C1.5026 0.500529 1.06936 0.68028 0.749821 0.999821C0.43028 1.31936 0.250529 1.7526 0.25 2.2045L0.25 10.7955C0.250529 11.2474 0.43028 11.6806 0.749821 12.0002C1.06936 12.3197 1.5026 12.4995 1.9545 12.5H4.25C4.44891 12.5 4.63968 12.421 4.78033 12.2803C4.92098 12.1397 5 11.9489 5 11.75C5 11.5511 4.92098 11.3603 4.78033 11.2197C4.63968 11.079 4.44891 11 4.25 11Z" fill="#FF5A5A"/>
    <path d="M11.591 4.9087L9.65 2.9692C9.58033 2.89956 9.49763 2.84433 9.40662 2.80666C9.31561 2.76899 9.21807 2.74961 9.11957 2.74963C9.02107 2.74966 8.92354 2.76908 8.83255 2.8068C8.74156 2.84451 8.65888 2.89978 8.58925 2.96945C8.51962 3.03911 8.46439 3.12181 8.42671 3.21282C8.38904 3.30383 8.36966 3.40137 8.36969 3.49987C8.36973 3.6988 8.4488 3.88957 8.5895 4.0302L10.2955 5.7357L3.5 5.7497C3.30109 5.7497 3.11032 5.82872 2.96967 5.96937C2.82902 6.11002 2.75 6.30079 2.75 6.4997C2.75 6.69861 2.82902 6.88938 2.96967 7.03003C3.11032 7.17068 3.30109 7.2497 3.5 7.2497L10.323 7.2372L8.5895 8.9707C8.45709 9.11294 8.38505 9.30102 8.38857 9.49532C8.39209 9.68962 8.47089 9.87496 8.60837 10.0123C8.74585 10.1497 8.93127 10.2283 9.12557 10.2316C9.31988 10.235 9.50789 10.1627 9.65 10.0302L11.5895 8.0907C11.7984 7.88177 11.9642 7.63373 12.0772 7.36074C12.1903 7.08776 12.2485 6.79517 12.2485 6.4997C12.2485 6.20422 12.1903 5.91164 12.0772 5.63865C11.9642 5.36567 11.7984 5.11763 11.5895 4.9087H11.591Z" fill="#FF5A5A"/>
  </g>
  <defs>
    <clipPath id="clip0_1163_736">
      <rect width="12" height="12" fill="white" transform="translate(0.25 0.5)"/>
    </clipPath>
  </defs>
</svg>