<svg width="27" height="27" viewBox="0 0 27 27" fill="none" xmlns="http://www.w3.org/2000/svg">
<g filter="url(#filter0_ii_1163_1150)">
<rect x="0.59375" y="0.577087" width="25.7877" height="25.7877" rx="12.8938" fill="url(#paint0_linear_1163_1150)"/>
<rect x="1.23844" y="1.22178" width="24.4983" height="24.4983" rx="12.2491" stroke="white" stroke-width="1.28938"/>
<path d="M14.5541 13.5751C14.6393 13.2554 15.0531 12.9354 15.2948 12.6586C16.4517 11.5556 16.2731 10.8357 14.8437 10.1721C13.3503 9.37555 9.58886 10.3078 11.394 12.4346C11.7244 12.8209 12.1095 13.1028 12.4052 13.4914C12.4458 13.6624 12.2534 13.8048 12.1388 13.9465C11.8151 14.2763 11.4363 14.5884 11.2319 15.0249C10.9397 15.6001 11.117 16.3111 11.7156 16.596C12.1177 16.8081 12.6052 16.8059 13.0335 16.8204C13.4873 16.8343 13.8524 16.918 14.3017 16.8858C15.4529 16.9199 16.4419 15.8672 15.6662 14.7953C15.4188 14.4652 15.0949 14.2327 14.8131 13.9724C14.7044 13.8647 14.5609 13.7405 14.5466 13.6083C14.5455 13.6002 14.5511 13.5813 14.5541 13.5751ZM13.9384 13.3936C13.7464 14.1836 14.6817 14.5609 15.1022 15.047C15.5346 15.43 15.3651 16.0799 14.8295 16.2301C14.0747 16.4609 13.2207 16.2571 12.4472 16.2592C11.5275 16.1804 11.4311 15.5716 12.0848 15.0074C13.8309 13.6747 13.4701 13.2528 12.0949 11.8463C11.9732 11.6736 11.7477 11.4585 11.8993 11.2644C12.8946 10.5634 14.4085 10.5588 15.3276 11.3981C15.0831 12.1817 14.1499 12.5117 13.955 13.3395L13.9384 13.3936Z" fill="white"/>
<path d="M20.6172 10.4688C19.5651 7.782 16.759 6.07114 13.9089 6.14589C13.8441 6.01558 13.7169 5.91648 13.5239 5.90776C10.5825 5.73632 8.11092 7.80122 6.70898 10.2318C6.53467 10.109 6.42599 9.87691 6.41168 9.43919C6.39468 9.0849 6.42902 8.72385 6.50763 8.37726C6.58717 8.05134 6.07148 7.93289 6.00214 8.26258C5.80162 9.16129 5.56535 10.4662 6.51001 11.0493C6.8125 11.2332 7.19272 11.2871 7.51409 11.2815C7.88389 11.2932 9.3358 11.0479 8.62893 10.5137C8.18342 10.3357 7.73726 10.3683 7.36301 10.3671C7.45754 10.1687 7.5652 9.97632 7.68278 9.79029C8.57043 8.42102 9.95482 7.32806 11.5454 6.92943C12.1851 6.76902 12.8445 6.74393 13.4853 6.83536C13.6981 6.84371 13.8409 6.73432 13.9105 6.58815C16.5 6.6668 19.0123 8.27315 19.8619 10.7654C20.1704 11.6077 20.3073 12.5072 20.2969 13.404C20.2946 13.6656 20.5124 13.8787 20.774 13.8704C21.776 13.8712 20.8401 11.0151 20.6172 10.4688Z" fill="white"/>
<path d="M21.1952 16.9137C20.855 15.4647 19.5436 15.6693 18.453 16.0769C18.2289 16.1404 18.1867 16.4728 18.3957 16.5864C18.5917 16.6993 18.8155 16.7308 19.0279 16.7411C19.2445 16.773 19.4887 16.7204 19.7223 16.6889C19.4534 17.1851 19.1194 17.6489 18.7379 18.0693C18.3953 18.4493 17.9977 18.7973 17.5836 19.0989C16.3383 19.9938 14.7952 20.5028 13.2604 20.418C11.0776 20.1326 8.90573 19.0713 7.66688 17.2125C7.18389 16.4895 6.87179 15.6618 6.74293 14.8038C6.67745 14.3757 6.66027 13.9401 6.68078 13.5055C6.69475 13.2432 6.4841 13.0199 6.22134 13.0187C5.96529 13.0167 5.75612 13.2226 5.75414 13.4787C5.74663 14.463 5.91993 15.4575 6.30502 16.3665C7.44705 19.1267 10.3483 20.7431 13.2175 21.0385C14.8975 21.1089 16.5586 20.5299 17.9099 19.5532C18.3555 19.2317 18.784 18.8628 19.1615 18.4639C19.6385 17.964 20.0568 17.4072 20.4096 16.807C20.4306 16.8258 20.4508 16.8467 20.47 16.8704C20.7031 17.2086 20.5961 17.6757 20.5224 18.0587C20.4864 18.24 20.4441 18.4267 20.4176 18.6355C20.3712 18.9559 20.8743 19.0364 20.9266 18.7136C21.0265 18.1042 21.313 17.5599 21.1952 16.9137Z" fill="white"/>
</g>
<defs>
<filter id="filter0_ii_1163_1150" x="-1.98502" y="-2.00168" width="30.9466" height="30.9452" filterUnits="userSpaceOnUse" color-interpolation-filters="sRGB">
<feFlood flood-opacity="0" result="BackgroundImageFix"/>
<feBlend mode="normal" in="SourceGraphic" in2="BackgroundImageFix" result="shape"/>
<feColorMatrix in="SourceAlpha" type="matrix" values="0 0 0 0 0 0 0 0 0 0 0 0 0 0 0 0 0 0 127 0" result="hardAlpha"/>
<feOffset dx="2.57877" dy="5.15753"/>
<feGaussianBlur stdDeviation="1.28938"/>
<feComposite in2="hardAlpha" operator="arithmetic" k2="-1" k3="1"/>
<feColorMatrix type="matrix" values="0 0 0 0 1 0 0 0 0 1 0 0 0 0 1 0 0 0 0.25 0"/>
<feBlend mode="normal" in2="shape" result="effect1_innerShadow_1163_1150"/>
<feColorMatrix in="SourceAlpha" type="matrix" values="0 0 0 0 0 0 0 0 0 0 0 0 0 0 0 0 0 0 127 0" result="hardAlpha"/>
<feOffset dx="-2.57877" dy="-2.57877"/>
<feGaussianBlur stdDeviation="2.57877"/>
<feComposite in2="hardAlpha" operator="arithmetic" k2="-1" k3="1"/>
<feColorMatrix type="matrix" values="0 0 0 0 0.4625 0 0 0 0 0.4625 0 0 0 0 0.4625 0 0 0 1 0"/>
<feBlend mode="normal" in2="effect1_innerShadow_1163_1150" result="effect2_innerShadow_1163_1150"/>
</filter>
<linearGradient id="paint0_linear_1163_1150" x1="13.4876" y1="0.577087" x2="13.4876" y2="26.3647" gradientUnits="userSpaceOnUse">
<stop stop-color="#BBBBBB"/>
<stop offset="0.99" stop-color="#898989"/>
</linearGradient>
</defs>
</svg>
