<svg xmlns="http://www.w3.org/2000/svg" width="15" height="15" viewBox="0 0 15 15" fill="none">
  <g clip-path="url(#clip0_1163_835)">
    <path d="M7.62928 0.592163C9.45793 0.592163 11.2117 1.31859 12.5047 2.61163C13.7978 3.90468 14.5242 5.65843 14.5242 7.48707C14.5242 9.31571 13.7978 11.0695 12.5047 12.3625C11.2117 13.6556 9.45793 14.382 7.62928 14.382C5.80064 14.382 4.04689 13.6556 2.75385 12.3625C1.4608 11.0695 0.734375 9.31571 0.734375 7.48707C0.734375 5.65843 1.4608 3.90468 2.75385 2.61163C4.04689 1.31859 5.80064 0.592163 7.62928 0.592163ZM2.02717 7.48707C2.02717 8.97284 2.61739 10.3978 3.66799 11.4484C4.71859 12.499 6.14351 13.0892 7.62928 13.0892C9.11506 13.0892 10.54 12.499 11.5906 11.4484C12.6412 10.3978 13.2314 8.97284 13.2314 7.48707C13.2314 6.0013 12.6412 4.57638 11.5906 3.52578C10.54 2.47518 9.11506 1.88496 7.62928 1.88496C6.14351 1.88496 4.71859 2.47518 3.66799 3.52578C2.61739 4.57638 2.02717 6.0013 2.02717 7.48707ZM6.2322 5.09712L9.90719 7.30263C9.93895 7.32181 9.96522 7.34887 9.98345 7.38118C10.0017 7.4135 10.0113 7.44997 10.0113 7.48707C10.0113 7.52417 10.0017 7.56065 9.98345 7.59296C9.96522 7.62527 9.93895 7.65233 9.90719 7.67151L6.2322 9.87702C6.19952 9.8967 6.1622 9.90736 6.12406 9.9079C6.08591 9.90843 6.0483 9.89883 6.01508 9.88008C5.98186 9.86132 5.95422 9.83408 5.93497 9.80113C5.91573 9.76819 5.90558 9.73073 5.90556 9.69258V5.28242C5.90543 5.2442 5.91547 5.20663 5.93465 5.17357C5.95383 5.1405 5.98146 5.11314 6.01471 5.09428C6.04795 5.07542 6.08562 5.06574 6.12384 5.06624C6.16206 5.06674 6.19946 5.0774 6.2322 5.09712Z" fill="url(#paint0_linear_1163_835)"/>
  </g>
  <defs>
    <linearGradient id="paint0_linear_1163_835" x1="-0.319014" y1="14.382" x2="16.1347" y2="11.2721" gradientUnits="userSpaceOnUse">
      <stop stop-color="#FFB912"/>
      <stop offset="1" stop-color="#49D043"/>
    </linearGradient>
    <clipPath id="clip0_1163_835">
      <rect width="13.7898" height="13.7898" fill="white" transform="translate(0.734375 0.592163)"/>
    </clipPath>
  </defs>
</svg>