<svg xmlns="http://www.w3.org/2000/svg" width="15" height="15" viewBox="0 0 15 15" fill="none">
  <g clip-path="url(#clip0_1163_811)">
    <path d="M7.62928 0.234619C9.45793 0.234619 11.2117 0.961045 12.5047 2.25409C13.7978 3.54714 14.5242 5.30088 14.5242 7.12953C14.5242 8.95817 13.7978 10.7119 12.5047 12.005C11.2117 13.298 9.45793 14.0244 7.62928 14.0244C5.80064 14.0244 4.04689 13.298 2.75385 12.005C1.4608 10.7119 0.734375 8.95817 0.734375 7.12953C0.734375 5.30088 1.4608 3.54714 2.75385 2.25409C4.04689 0.961045 5.80064 0.234619 7.62928 0.234619ZM2.02717 7.12953C2.02717 8.6153 2.61739 10.0402 3.66799 11.0908C4.71859 12.1414 6.14351 12.7316 7.62928 12.7316C9.11506 12.7316 10.54 12.1414 11.5906 11.0908C12.6412 10.0402 13.2314 8.6153 13.2314 7.12953C13.2314 5.64375 12.6412 4.21884 11.5906 3.16824C10.54 2.11764 9.11506 1.52741 7.62928 1.52741C6.14351 1.52741 4.71859 2.11764 3.66799 3.16824C2.61739 4.21884 2.02717 5.64375 2.02717 7.12953ZM6.2322 4.73958L9.90719 6.94509C9.93895 6.96427 9.96522 6.99133 9.98345 7.02364C10.0017 7.05595 10.0113 7.09242 10.0113 7.12953C10.0113 7.16663 10.0017 7.2031 9.98345 7.23542C9.96522 7.26773 9.93895 7.29478 9.90719 7.31397L6.2322 9.51947C6.19952 9.53916 6.1622 9.54982 6.12406 9.55035C6.08591 9.55089 6.0483 9.54129 6.01508 9.52253C5.98186 9.50377 5.95422 9.47653 5.93497 9.44359C5.91573 9.41065 5.90558 9.37319 5.90556 9.33504V4.92488C5.90543 4.88666 5.91547 4.84909 5.93465 4.81602C5.95383 4.78296 5.98146 4.75559 6.01471 4.73673C6.04795 4.71787 6.08562 4.7082 6.12384 4.7087C6.16206 4.7092 6.19946 4.71986 6.2322 4.73958Z" fill="white" fill-opacity="0.8"/>
  </g>
  <defs>
    <clipPath id="clip0_1163_811">
      <rect width="13.7898" height="13.7898" fill="white" transform="translate(0.734375 0.234619)"/>
    </clipPath>
  </defs>
</svg>