<svg xmlns="http://www.w3.org/2000/svg" width="53" height="53" viewBox="0 0 53 53" fill="none">
  <path fill-rule="evenodd" clip-rule="evenodd" d="M26.4023 52.9023C40.984 52.9023 52.8047 41.0816 52.8047 26.5C52.8047 11.9184 40.984 0.0976562 26.4023 0.0976562C11.8207 0.0976562 0 11.9184 0 26.5C0 41.0816 11.8207 52.9023 26.4023 52.9023ZM26.4015 49.3833C39.0389 49.3833 49.2835 39.1387 49.2835 26.5013C49.2835 13.8639 39.0389 3.61926 26.4015 3.61926C13.7641 3.61926 3.51945 13.8639 3.51945 26.5013C3.51945 39.1387 13.7641 49.3833 26.4015 49.3833Z" fill="white" fill-opacity="0.43"/>
  <path fill-rule="evenodd" clip-rule="evenodd" d="M28.708 52.8022C27.438 52.9134 26.4023 51.8695 26.4023 50.5946C26.4023 50.5674 26.4028 50.5402 26.4038 50.5132C26.4296 49.7694 27.1977 49.3824 27.9404 49.3331C39.8611 48.5426 49.2855 38.6228 49.2855 26.5019C49.2855 14.3809 39.861 4.46105 27.9401 3.67065C27.1985 3.62148 26.4313 3.23566 26.4039 2.49294C26.4029 2.46431 26.4023 2.43554 26.4023 2.40664C26.4023 1.13176 27.438 0.087779 28.708 0.199064C34.8653 0.738602 40.6666 3.42632 45.0716 7.83134C50.023 12.7827 52.8047 19.4983 52.8047 26.5006C52.8047 33.503 50.023 40.2185 45.0716 45.1699C40.6666 49.5749 34.8653 52.2626 28.708 52.8022Z" fill="url(#paint0_linear_1163_747)"/>
  <defs>
    <linearGradient id="paint0_linear_1163_747" x1="39.6035" y1="0.190918" x2="39.6035" y2="52.8103" gradientUnits="userSpaceOnUse">
      <stop stop-color="#49D043"/>
      <stop offset="1" stop-color="#FFB912"/>
    </linearGradient>
  </defs>
</svg>