<svg xmlns="http://www.w3.org/2000/svg" width="15" height="16" viewBox="0 0 15 16" fill="none">
  <g clip-path="url(#clip0_1163_719)">
    <path d="M2.81342 5.12459C2.52603 5.1254 2.24133 5.0692 1.97581 4.95923C1.71029 4.84927 1.46921 4.68773 1.26654 4.48397L0.313418 3.63709C0.127766 3.47133 0.0155663 3.23861 0.00150112 2.99013C-0.00546327 2.86709 0.0118746 2.74388 0.0525248 2.62755C0.093175 2.51121 0.156341 2.40402 0.238418 2.31209C0.320494 2.22017 0.419872 2.14531 0.530879 2.09179C0.641886 2.03827 0.762347 2.00714 0.885385 2.00018C1.13387 1.98611 1.37777 2.07133 1.56342 2.23709L2.55342 3.12084C2.58565 3.15894 2.62536 3.19002 2.67008 3.21216C2.7148 3.23431 2.76358 3.24705 2.81342 3.24959C2.89614 3.24957 2.97548 3.21676 3.03404 3.15834L5.29217 1.00834C5.47348 0.844278 5.71172 0.757544 5.95607 0.766641C6.20042 0.775737 6.43155 0.879943 6.60016 1.05703C6.76877 1.23412 6.86152 1.47008 6.85863 1.71459C6.85573 1.95909 6.75742 2.19279 6.58467 2.36584L4.34342 4.49959C4.14204 4.6993 3.90324 4.8573 3.6407 4.96455C3.37815 5.0718 3.09702 5.12618 2.81342 5.12459ZM15.0009 2.93709C15.0009 2.68845 14.9021 2.45 14.7263 2.27418C14.5505 2.09836 14.3121 1.99959 14.0634 1.99959H9.06342C8.81478 1.99959 8.57632 2.09836 8.40051 2.27418C8.22469 2.45 8.12592 2.68845 8.12592 2.93709C8.12592 3.18573 8.22469 3.42419 8.40051 3.60001C8.57632 3.77582 8.81478 3.87459 9.06342 3.87459H14.0634C14.3121 3.87459 14.5505 3.77582 14.7263 3.60001C14.9021 3.42419 15.0009 3.18573 15.0009 2.93709ZM4.34342 9.49959L6.58467 7.36584C6.75742 7.19279 6.85573 6.9591 6.85863 6.71459C6.86152 6.47009 6.76877 6.23413 6.60016 6.05703C6.43155 5.87994 6.20042 5.77574 5.95607 5.76664C5.71172 5.75754 5.47348 5.84428 5.29217 6.00834L3.03404 8.15834C2.97544 8.21693 2.89597 8.24984 2.81311 8.24984C2.73024 8.24984 2.65077 8.21693 2.59217 8.15834L1.60154 7.16709C1.42567 6.99122 1.18714 6.89242 0.938418 6.89242C0.689698 6.89242 0.451164 6.99122 0.275293 7.16709C0.0994209 7.34296 0.000617237 7.5815 0.000617237 7.83022C0.000617237 8.07894 0.0994209 8.31747 0.275293 8.49334L1.26654 9.48397C1.67402 9.8912 2.22569 10.1213 2.80177 10.1242C3.37785 10.1271 3.93183 9.90267 4.34342 9.49959ZM15.0009 7.93709C15.0009 7.68845 14.9021 7.45 14.7263 7.27418C14.5505 7.09836 14.3121 6.99959 14.0634 6.99959H9.06342C8.81478 6.99959 8.57632 7.09836 8.40051 7.27418C8.22469 7.45 8.12592 7.68845 8.12592 7.93709C8.12592 8.18573 8.22469 8.42419 8.40051 8.60001C8.57632 8.77582 8.81478 8.87459 9.06342 8.87459H14.0634C14.3121 8.87459 14.5505 8.77582 14.7263 8.60001C14.9021 8.42419 15.0009 8.18573 15.0009 7.93709ZM4.34342 14.4996L6.58467 12.3658C6.75742 12.1928 6.85573 11.9591 6.85863 11.7146C6.86152 11.4701 6.76877 11.2341 6.60016 11.057C6.43155 10.8799 6.20042 10.7757 5.95607 10.7666C5.71172 10.7575 5.47348 10.8443 5.29217 11.0083L3.03404 13.1583C2.97548 13.2168 2.89614 13.2496 2.81342 13.2496C2.76358 13.247 2.7148 13.2343 2.67008 13.2122C2.62536 13.19 2.58565 13.1589 2.55342 13.1208L1.56342 12.2371C1.37777 12.0713 1.13387 11.9861 0.885385 12.0002C0.636899 12.0142 0.404178 12.1264 0.238418 12.3121C0.0726573 12.4977 -0.0125641 12.7416 0.00150112 12.9901C0.0155663 13.2386 0.127766 13.4713 0.313418 13.6371L1.26529 14.484C1.67282 14.8916 2.22476 15.1219 2.80114 15.1248C3.37753 15.1277 3.93177 14.903 4.34342 14.4996ZM15.0009 12.9371C15.0009 12.6885 14.9021 12.45 14.7263 12.2742C14.5505 12.0984 14.3121 11.9996 14.0634 11.9996H9.06342C8.81478 11.9996 8.57632 12.0984 8.40051 12.2742C8.22469 12.45 8.12592 12.6885 8.12592 12.9371C8.12592 13.1857 8.22469 13.4242 8.40051 13.6C8.57632 13.7758 8.81478 13.8746 9.06342 13.8746H14.0634C14.3121 13.8746 14.5505 13.7758 14.7263 13.6C14.9021 13.4242 15.0009 13.1857 15.0009 12.9371Z" fill="url(#paint0_linear_1163_719)"/>
  </g>
  <defs>
    <linearGradient id="paint0_linear_1163_719" x1="9.13099" y1="3.10711" x2="15.8998" y2="3.6367" gradientUnits="userSpaceOnUse">
      <stop stop-color="#49D043"/>
      <stop offset="1" stop-color="#FFB912"/>
    </linearGradient>
    <clipPath id="clip0_1163_719">
      <rect width="15" height="15" fill="white" transform="translate(0 0.749512)"/>
    </clipPath>
  </defs>
</svg>