<svg xmlns="http://www.w3.org/2000/svg" width="19" height="13" viewBox="0 0 19 13" fill="none">
  <path d="M9.34766 0.470917C5.25675 0.470917 1.76311 2.95892 0.347656 6.47092C1.76311 9.98292 5.25675 12.4709 9.34766 12.4709C13.4386 12.4709 16.9322 9.98292 18.3477 6.47092C16.9322 2.95892 13.4386 0.470917 9.34766 0.470917ZM9.34766 10.4709C7.08947 10.4709 5.25675 8.67892 5.25675 6.47092C5.25675 4.26292 7.08947 2.47092 9.34766 2.47092C11.6058 2.47092 13.4386 4.26292 13.4386 6.47092C13.4386 8.67892 11.6058 10.4709 9.34766 10.4709ZM9.34766 4.07092C7.98947 4.07092 6.89311 5.14292 6.89311 6.47092C6.89311 7.79892 7.98947 8.87092 9.34766 8.87092C10.7058 8.87092 11.8022 7.79892 11.8022 6.47092C11.8022 5.14292 10.7058 4.07092 9.34766 4.07092Z" fill="#FFD267"/>
</svg>