<svg xmlns="http://www.w3.org/2000/svg" width="21" height="21" viewBox="0 0 21 21" fill="none">
  <path d="M16.2896 4.42335C15.5103 3.6362 14.5821 3.01209 13.5591 2.58743C12.5361 2.16276 11.4388 1.94604 10.3312 1.94989C5.69028 1.94989 1.90784 5.73233 1.90784 10.3732C1.90784 11.8607 2.29884 13.3057 3.02982 14.5807L1.83984 18.9496L6.30227 17.7766C7.53474 18.4481 8.92022 18.8051 10.3312 18.8051C14.9721 18.8051 18.7545 15.0227 18.7545 10.3817C18.7545 8.12929 17.8791 6.01282 16.2896 4.42335ZM10.3312 17.3771C9.07322 17.3771 7.84074 17.0371 6.76126 16.3996L6.50626 16.2466L3.85431 16.9436L4.5598 14.3597L4.3898 14.0962C3.6909 12.9801 3.31979 11.6901 3.31882 10.3732C3.31882 6.51431 6.46376 3.36937 10.3227 3.36937C12.1927 3.36937 13.9521 4.10036 15.2696 5.42633C15.922 6.07569 16.4389 6.84807 16.7906 7.69871C17.1422 8.54934 17.3215 9.46131 17.3181 10.3817C17.3351 14.2407 14.1901 17.3771 10.3312 17.3771ZM14.1731 12.1412C13.9606 12.0392 12.9236 11.5292 12.7367 11.4527C12.5412 11.3847 12.4052 11.3507 12.2607 11.5547C12.1162 11.7672 11.7167 12.2432 11.5977 12.3792C11.4787 12.5237 11.3512 12.5407 11.1387 12.4302C10.9262 12.3282 10.2462 12.0987 9.44721 11.3847C8.81822 10.8237 8.40173 10.1353 8.27423 9.92275C8.15523 9.71026 8.25723 9.59976 8.36773 9.48926C8.46123 9.39576 8.58022 9.24277 8.68222 9.12377C8.78422 9.00477 8.82672 8.91127 8.89472 8.77527C8.96272 8.63078 8.92872 8.51178 8.87772 8.40978C8.82672 8.30778 8.40173 7.2708 8.23173 6.84581C8.06173 6.43782 7.88324 6.48882 7.75574 6.48032H7.34775C7.20325 6.48032 6.98225 6.53131 6.78676 6.74381C6.59976 6.95631 6.05577 7.4663 6.05577 8.50328C6.05577 9.54026 6.81226 10.5432 6.91425 10.6792C7.01625 10.8237 8.40173 12.9487 10.5097 13.8582C11.0112 14.0792 11.4022 14.2067 11.7082 14.3002C12.2097 14.4617 12.6687 14.4362 13.0341 14.3852C13.4421 14.3257 14.2836 13.8752 14.4536 13.3822C14.6321 12.8892 14.6321 12.4727 14.5726 12.3792C14.5131 12.2857 14.3856 12.2432 14.1731 12.1412Z" fill="url(#paint0_linear_1163_1263)"/>
  <defs>
    <linearGradient id="paint0_linear_1163_1263" x1="12.1358" y1="4.72154" x2="19.7724" y2="5.29061" gradientUnits="userSpaceOnUse">
      <stop stop-color="#49D043"/>
      <stop offset="1" stop-color="#FFB912"/>
    </linearGradient>
  </defs>
</svg>